<?xml version="1.0" standalone="no"?>
<!DOCTYPE svg PUBLIC "-//W3C//DTD SVG 1.1//EN" "http://www.w3.org/Graphics/SVG/1.1/DTD/svg11.dtd" >
<svg xmlns="http://www.w3.org/2000/svg">
<metadata></metadata>
<defs>
<font id="vw_headline_otbook" horiz-adv-x="1187" >
<font-face units-per-em="2048" ascent="1638" descent="-410" />
<missing-glyph horiz-adv-x="555" />
<glyph unicode="&#xfb01;" horiz-adv-x="1069" d="M43 754v143h133v334q0 150 63.5 231.5t219.5 81.5q35 0 78 -5t71 -13l-24 -152q-23 6 -52.5 11.5t-54.5 5.5q-74 0 -102.5 -41t-28.5 -131v-322h569v-897h-170v754h-399v-754h-170v754h-133zM707 1280q0 51 35.5 87t86.5 36t87 -36t36 -87t-36 -87t-87 -36t-86.5 36 t-35.5 87z" />
<glyph unicode="&#xfb02;" horiz-adv-x="1071" d="M43 754v143h133v215q0 238 108.5 336t307.5 98q29 0 77 -4t81 -8h168v-1534h-170v1380q-35 6 -82.5 11.5t-92.5 5.5q-61 0 -104 -14.5t-70.5 -49.5t-40 -94t-12.5 -147v-195h234v-143h-234v-754h-170v754h-133z" />
<glyph unicode="&#xfb03;" horiz-adv-x="1703" d="M43 754v143h133v328q0 150 63.5 231.5t219.5 81.5q35 0 74.5 -4t66.5 -10l-16 -152q-53 12 -107 12q-74 0 -102.5 -40.5t-28.5 -131.5v-315h432v334q0 150 63.5 231.5t219.5 81.5q35 0 78 -5t71 -13l-24 -152q-23 6 -52.5 11.5t-54.5 5.5q-74 0 -102.5 -41t-28.5 -131 v-322h602v-897h-170v754h-432v-754h-170v754h-432v-754h-170v754h-133zM1341 1268q0 51 36 87t87 36t87 -36t36 -87t-36 -87t-87 -36t-87 36t-36 87z" />
<glyph unicode="&#xfb04;" horiz-adv-x="1673" d="M43 754v143h133v328q0 150 63.5 231.5t219.5 81.5q35 0 74.5 -4t66.5 -10l-16 -152q-53 12 -107 12q-74 0 -102.5 -40.5t-28.5 -131.5v-315h432v215q0 238 108.5 336t307.5 98q29 0 77 -4t81 -8h168v-1534h-170v1380q-35 6 -82 11.5t-92 5.5q-61 0 -104.5 -14.5 t-71 -49.5t-40 -94t-12.5 -147v-195h234v-143h-234v-754h-170v754h-432v-754h-170v754h-133z" />
<glyph horiz-adv-x="0" />
<glyph unicode="&#xd;" horiz-adv-x="555" />
<glyph unicode=" "  horiz-adv-x="555" />
<glyph unicode="&#x09;" horiz-adv-x="555" />
<glyph unicode="&#xa0;" horiz-adv-x="555" />
<glyph unicode="!" horiz-adv-x="534" d="M182 117q0 55 40 95t95 40t95.5 -40t40.5 -95t-40.5 -95t-95.5 -40t-95 39.5t-40 95.5zM236 379v1073h163v-1073h-163z" />
<glyph unicode="&#x22;" horiz-adv-x="860" d="M135 1489h209l-43 -596h-123zM516 1489h209l-43 -596h-123z" />
<glyph unicode="#" horiz-adv-x="1394" d="M92 428v150h283l47 317h-266v152h286l56 405h164l-56 -405h318l57 405h160l-51 -405h217v-152h-238l-47 -317h219v-150h-244l-61 -428h-164l64 428h-318l-65 -428h-168l69 428h-262zM539 578h319l45 317h-317z" />
<glyph unicode="$" d="M168 270l160 82q31 -90 89 -144t140 -67v527q-61 31 -121.5 65.5t-110 82.5t-80 113.5t-30.5 160.5q0 72 25.5 136t70.5 115.5t108.5 85t137.5 43.5v181h107v-183q233 -18 340 -235l-148 -84q-29 63 -79 105t-113 57v-494q63 -31 126.5 -66.5t114.5 -84t84 -116 t33 -161.5q0 -78 -25.5 -147.5t-71.5 -122.5t-113 -89t-148 -46v-230h-107v226q-129 8 -233.5 81.5t-155.5 208.5zM401 1100q0 -78 44 -131.5t112 -94.5v435q-76 -20 -116 -81t-40 -128zM664 147q82 20 124.5 83t42.5 143q0 88 -48 143t-119 96v-465z" />
<glyph unicode="%" horiz-adv-x="1650" d="M80 1044q0 221 84 323.5t225 102.5q147 0 219 -102t72 -315q0 -221 -80 -325.5t-227 -104.5q-59 0 -112.5 19.5t-93.5 68.5t-63.5 130t-23.5 203zM244 1053q0 -86 9 -143.5t26.5 -90.5t43 -46t58.5 -13q70 0 102.5 62.5t32.5 221.5q0 156 -30.5 223.5t-104.5 67.5 q-72 0 -104.5 -61.5t-32.5 -220.5zM369 -10l770 1526l125 -60l-770 -1524zM963 403q0 221 83.5 323.5t225.5 102.5q147 0 219 -102t72 -315q0 -221 -80.5 -325.5t-227.5 -104.5q-59 0 -112 19t-93 68.5t-63.5 130.5t-23.5 203zM1126 412q0 -86 9.5 -143.5t27 -90.5t43 -46 t58.5 -13q70 0 102.5 62.5t32.5 221.5q0 156 -31 223.5t-104 67.5q-72 0 -105 -61.5t-33 -220.5z" />
<glyph unicode="&#x26;" horiz-adv-x="1337" d="M88 391q0 86 27.5 151.5t72.5 116t102.5 89t119.5 75.5q-80 98 -119 172t-39 160q0 70 26.5 127t72.5 98t108.5 64.5t134.5 23.5q86 0 147.5 -26.5t100.5 -69.5t57.5 -95t18.5 -103q0 -70 -23 -125.5t-60.5 -99.5t-87 -81t-104.5 -69l315 -387q45 47 90.5 104t94.5 117 l112 -123q-49 -61 -96 -118.5t-94 -106.5l190 -234v-51h-178l-135 168q-104 -90 -208.5 -138t-227.5 -48q-82 0 -157 26.5t-133 78.5t-93 129t-35 175zM266 403q0 -55 17.5 -103t51.5 -84t81 -56.5t108 -20.5q80 0 156 38t162 114l-342 422q-47 -29 -89 -59.5t-75 -67.5 t-51.5 -82t-18.5 -101zM428 1163q0 -72 33 -128t92 -128q35 20 68.5 47t60.5 57.5t43 68.5t16 85q0 63 -43 107.5t-110 44.5q-76 0 -118 -44t-42 -110z" />
<glyph unicode="'" horiz-adv-x="479" d="M133 1489h213l-47 -596h-119z" />
<glyph unicode="(" horiz-adv-x="563" d="M145 612q0 256 65.5 501t170.5 454l135 -49q-47 -102 -87 -216t-67.5 -231t-43 -232.5t-15.5 -220.5q0 -104 13.5 -219.5t40 -233.5t65.5 -236.5t92 -231.5l-135 -55q-123 246 -178.5 496.5t-55.5 473.5z" />
<glyph unicode=")" horiz-adv-x="563" d="M47 -309q47 100 87 214.5t67.5 231.5t43 232.5t15.5 220.5q0 104 -13.5 219t-40 233.5t-66.5 237.5t-91 231l135 56q123 -246 178.5 -497t55.5 -474q0 -256 -65.5 -501t-170.5 -453z" />
<glyph unicode="*" horiz-adv-x="798" d="M41 995l225 125l-223 125l57 101l224 -134l-5 263h117l-4 -258l219 131l60 -101l-228 -127l230 -127l-60 -102l-221 133l4 -256h-117l5 260l-226 -135z" />
<glyph unicode="+" horiz-adv-x="1392" d="M113 500v164h497v491h172v-491h498v-164h-498v-500h-172v500h-497z" />
<glyph unicode="," horiz-adv-x="491" d="M37 -270q63 55 103 112.5t40 110.5q0 31 -7 53.5t-15 43t-15.5 42t-7.5 45.5q0 45 32 79t85 34q51 0 91 -42t40 -136q0 -113 -71.5 -222.5t-200.5 -205.5z" />
<glyph unicode="-" horiz-adv-x="704" d="M94 494v145h518v-145h-518z" />
<glyph unicode="." horiz-adv-x="483" d="M106 117q0 55 40 95t96 40q55 0 95 -40t40 -95t-40 -95t-95 -40t-95.5 39.5t-40.5 95.5z" />
<glyph unicode="/" horiz-adv-x="901" d="M115 0l635 1452h163l-634 -1452h-164z" />
<glyph unicode="0" d="M86 715q0 162 32 301t96.5 240.5t159.5 159t224 57.5q133 0 228.5 -55.5t156.5 -153t90 -231.5t29 -294q0 -164 -33 -303t-97.5 -241.5t-160.5 -161t-225 -58.5q-131 0 -225.5 55.5t-156 155t-90 234.5t-28.5 295zM276 735q0 -133 16.5 -243.5t54.5 -189.5t98.5 -123 t150.5 -44q84 0 143.5 47t98.5 126t56 183.5t17 219.5q0 135 -16 246.5t-54 191.5t-100.5 123t-152.5 43q-80 0 -139.5 -45t-97.5 -124t-56.5 -184.5t-18.5 -226.5z" />
<glyph unicode="1" d="M188 0v172h328v1108h-287v172h463v-1280h307v-172h-811z" />
<glyph unicode="2" d="M109 958q-6 242 112.5 380.5t347.5 138.5q123 0 211 -37t145.5 -98.5t84 -139.5t26.5 -160q0 -100 -31.5 -187t-85 -166t-121 -150.5t-141.5 -139.5l-254 -233h676v-166h-954v117l377 364q88 86 152.5 158t105.5 136.5t61.5 126t20.5 126.5q0 123 -67.5 205t-213.5 82 q-84 0 -137 -33t-84 -85t-40 -114.5t-3 -124.5h-188z" />
<glyph unicode="3" d="M129 397h182q4 -53 24.5 -101t55.5 -83t83 -55.5t106 -20.5q70 0 123 21.5t89.5 58.5t55 86t18.5 105q0 55 -20.5 105t-59 88t-94 60.5t-125.5 22.5h-73v160h67q125 0 188.5 70.5t63.5 168.5q0 49 -17.5 92.5t-49 75t-74.5 50t-94 18.5q-55 0 -100.5 -18.5t-77 -51 t-48 -78t-12.5 -96.5h-174q-2 82 24.5 155t81 128t133 87t179.5 32q98 0 176 -32t132 -84t83 -121t29 -140q0 -135 -61.5 -215t-154.5 -113q49 -8 97.5 -39t87.5 -78t62.5 -105t23.5 -122q0 -90 -31 -171t-92.5 -144.5t-152.5 -100.5t-214 -37q-96 0 -176 32t-138 88.5 t-91 133t-35 168.5z" />
<glyph unicode="4" d="M68 348v137l614 967h215v-942h221v-162h-221v-348h-176v348h-653zM264 510h457v727l-76 -123z" />
<glyph unicode="5" d="M129 133l107 135q57 -63 142 -98t169 -35q80 0 140.5 25.5t101 69.5t62 103.5t21.5 127.5q0 66 -20.5 125t-63.5 103t-110.5 69.5t-161.5 25.5q-72 0 -153.5 -17t-145.5 -40l51 725h670v-164h-520l-27 -373q27 4 71 11.5t79 7.5q129 0 225 -36t160.5 -98.5t97.5 -145.5 t33 -177q0 -100 -34 -190t-100.5 -159t-163.5 -110t-222 -41q-123 0 -227.5 40t-180.5 116z" />
<glyph unicode="6" d="M121 436q0 139 61.5 297t196.5 357q70 104 143.5 200t128.5 162h232q-61 -66 -129 -147.5t-131 -161.5q-66 -84 -125.5 -173t-96.5 -149q51 29 111.5 45.5t120.5 16.5q88 0 167 -33t137 -90.5t93 -138t35 -175.5q0 -102 -36 -187t-99.5 -148.5t-150.5 -98.5t-189 -35 q-115 0 -202 39t-146.5 103.5t-90 147.5t-30.5 169zM305 434q0 -61 22.5 -116.5t62.5 -95.5t93.5 -63.5t116.5 -23.5q57 0 108.5 22.5t89.5 63.5t60.5 98.5t22.5 124.5q0 59 -22.5 111.5t-60.5 92.5t-91.5 62.5t-114.5 22.5t-113.5 -22.5t-90.5 -62.5t-60.5 -94t-22.5 -120z " />
<glyph unicode="7" d="M127 1288v164h932v-129l-643 -1323h-205l643 1288h-727z" />
<glyph unicode="8" d="M125 403q0 135 66.5 223.5t187.5 135.5q-100 39 -158.5 123t-58.5 194q0 76 28.5 147.5t84 127t137.5 89.5t186 34q88 0 167 -29t138.5 -81t93 -122.5t33.5 -157.5q0 -121 -59.5 -198.5t-161.5 -124.5q111 -35 182.5 -123t71.5 -231q0 -90 -37 -169t-100.5 -137.5 t-149.5 -92.5t-186 -34q-96 0 -180 31t-147.5 86.5t-100.5 134t-37 174.5zM303 408q0 -59 23.5 -109.5t63.5 -87.5t92.5 -58.5t111.5 -21.5q66 0 120 21.5t92 58.5t59.5 87t21.5 110q0 57 -22.5 107t-61.5 87t-92.5 58.5t-112.5 21.5q-61 0 -114.5 -21.5t-93.5 -58.5 t-63.5 -87t-23.5 -107zM334 1087q0 -49 17.5 -94t51 -80.5t82 -56t109.5 -20.5q59 0 108.5 19t84 52t53 78t18.5 94t-17.5 93.5t-51 78t-83 54t-112.5 20.5q-123 0 -191.5 -69.5t-68.5 -168.5z" />
<glyph unicode="9" d="M119 1004q0 100 35.5 186t99 149.5t151 98.5t189.5 35q113 0 202 -39t148.5 -102.5t91 -146.5t31.5 -169q0 -80 -16.5 -155t-50 -153.5t-83 -163.5t-116.5 -184q-70 -104 -141.5 -200.5t-127.5 -161.5h-237q59 66 126.5 147.5t131.5 161.5q68 84 130 173t99 149 q-51 -29 -111.5 -45.5t-119.5 -16.5q-88 0 -167 33t-137.5 90.5t-93 137t-34.5 176.5zM303 1006q0 -59 22.5 -111.5t61.5 -92.5t91.5 -62.5t113.5 -22.5t113.5 22.5t90.5 62.5t60.5 94t22.5 120q0 61 -22.5 116.5t-61.5 95.5t-93.5 63.5t-115.5 23.5q-57 0 -108.5 -22.5 t-90.5 -63.5t-61.5 -98.5t-22.5 -124.5z" />
<glyph unicode=":" horiz-adv-x="716" d="M223 117q0 55 40 95t95 40t95.5 -40t40.5 -95t-40.5 -95t-95.5 -40t-95 39.5t-40 95.5zM223 645q0 55 40 95t95 40t95.5 -40t40.5 -95t-40.5 -95t-95.5 -40t-95 40t-40 95z" />
<glyph unicode=";" horiz-adv-x="716" d="M139 -270q63 55 103.5 112.5t40.5 110.5q0 31 -7.5 53.5t-15.5 43t-15 42t-7 45.5q0 45 31.5 79t84.5 34q51 0 91 -42t40 -136q0 -113 -71.5 -222.5t-200.5 -205.5zM223 645q0 55 40 95t95 40t95.5 -40t40.5 -95t-40.5 -95t-95.5 -40t-95 40t-40 95z" />
<glyph unicode="&#x3c;" horiz-adv-x="1392" d="M113 489v177l1147 489v-176l-947 -395l947 -402v-182z" />
<glyph unicode="=" horiz-adv-x="1392" d="M133 301v164h1127v-164h-1127zM133 705v163h1127v-163h-1127z" />
<glyph unicode="&#x3e;" horiz-adv-x="1392" d="M113 0v182l946 402l-946 395v176l1147 -489v-177z" />
<glyph unicode="?" horiz-adv-x="1042" d="M106 1038q-6 88 25 165t88 135.5t137 92t172 33.5q90 0 166 -29.5t131.5 -83t86 -126t30.5 -156.5t-30.5 -153.5t-80 -121t-113 -82t-128.5 -36.5v-299h-170v434h94q117 0 187.5 70.5t70.5 181.5q0 53 -19.5 99t-53 81t-80 55.5t-97.5 20.5t-97 -21.5t-81 -58.5 t-53.5 -88t-14.5 -113h-170zM373 109q0 55 40 95t95 40t95 -40t40 -95t-40 -95.5t-95 -40.5t-95 40t-40 96z" />
<glyph unicode="@" horiz-adv-x="2158" d="M119 559q0 207 77.5 388t213 316.5t315.5 214t387 78.5q223 0 393 -73.5t285 -191t174 -263t59 -289.5q0 -131 -37.5 -243.5t-111.5 -195.5t-184.5 -130t-257.5 -47h-132v129q-41 -68 -118.5 -108t-175.5 -40q-94 0 -173 35t-136.5 96.5t-89.5 145.5t-32 182 q0 100 33 187.5t90.5 151t136 100t171.5 36.5q92 0 168.5 -36.5t125.5 -106.5v125h170v-744q180 0 276.5 118t96.5 345q0 109 -43 224.5t-132 212t-227 158t-327 61.5q-170 0 -317.5 -65.5t-257 -179.5t-173 -266.5t-63.5 -324.5t63.5 -324.5t173 -266t257 -179t317.5 -65.5 q141 0 279.5 45t261.5 127l78 -152q-129 -86 -295 -134t-326 -48q-207 0 -387 78.5t-315.5 214t-213 316.5t-77.5 388zM750 571q0 -66 20.5 -124t57 -101t88 -67.5t112.5 -24.5q66 0 118 23.5t89 65.5t56.5 100.5t19.5 127.5q0 145 -78 231.5t-205 86.5q-61 0 -112.5 -24.5 t-88 -67.5t-57 -101.5t-20.5 -124.5z" />
<glyph unicode="A" horiz-adv-x="1347" d="M31 0l569 1452h154l563 -1452h-201l-145 389h-600l-146 -389h-194zM430 545h479l-133 352q-10 27 -28.5 75t-34.5 95q-20 55 -43 119q-20 -63 -41 -117q-16 -47 -35 -94t-29 -76z" />
<glyph unicode="B" horiz-adv-x="1132" d="M174 0v1452h361q94 0 170.5 -24.5t132 -70.5t85 -111.5t29.5 -149.5q0 -117 -56 -199t-148 -131q51 -14 99 -45t85 -75t58.5 -103.5t21.5 -130.5q0 -86 -30 -161t-91.5 -131.5t-157.5 -88t-231 -31.5h-328zM358 162h168q156 0 228.5 62.5t72.5 181.5t-76.5 190.5 t-252.5 71.5h-140v-506zM358 825h134q51 0 100 15.5t87 46.5t60.5 76t22.5 106q0 98 -59.5 160.5t-188.5 62.5h-156v-467z" />
<glyph unicode="C" horiz-adv-x="1331" d="M98 721q0 170 56.5 308t156 235.5t233.5 150.5t290 53q106 0 199 -20.5t175 -58.5v-199q-72 45 -172 76.5t-215 31.5q-111 0 -206 -43t-165.5 -118.5t-110.5 -180t-40 -229.5q0 -123 41 -227.5t113.5 -180t172 -118.5t214.5 -43q106 0 207.5 25.5t179.5 78.5v-190 q-86 -41 -187.5 -63.5t-214.5 -22.5q-160 0 -293 56t-230 154.5t-150.5 232.5t-53.5 292z" />
<glyph unicode="D" horiz-adv-x="1368" d="M174 0v1452h348q168 0 306.5 -48t234.5 -141.5t149.5 -228.5t53.5 -307q0 -131 -37 -261t-127 -233.5t-246 -168t-391 -64.5h-291zM358 166h125q170 0 283 42t180.5 116.5t96 175t28.5 217.5q0 123 -31.5 228.5t-101.5 181t-177.5 118.5t-256.5 43h-146v-1122z" />
<glyph unicode="E" horiz-adv-x="1087" d="M174 0v1452h758v-172h-574v-444h551v-164h-551v-502h580v-170h-764z" />
<glyph unicode="F" horiz-adv-x="999" d="M174 0v1452h719v-174h-535v-455h519v-166h-519v-657h-184z" />
<glyph unicode="G" horiz-adv-x="1593" d="M102 727q0 150 59.5 286t162 239.5t240.5 164t298 60.5q190 0 339 -73t265 -212l-143 -125q-92 125 -208 182.5t-263 57.5q-123 0 -225.5 -46.5t-176 -125t-114.5 -183t-41 -221.5q0 -123 41 -228.5t113.5 -184t173 -123.5t219.5 -45q111 0 199.5 34.5t153.5 94 t101.5 138.5t42.5 165h-397v174h596v-62q0 -145 -47 -276t-137 -229.5t-220 -156t-296 -57.5q-162 0 -297 59.5t-232.5 161t-152 238.5t-54.5 293z" />
<glyph unicode="H" horiz-adv-x="1429" d="M174 0v1452h184v-586h713v586h184v-1452h-184v696h-713v-696h-184z" />
<glyph unicode="I" horiz-adv-x="532" d="M174 0v1452h184v-1452h-184z" />
<glyph unicode="J" horiz-adv-x="790" d="M8 127l123 131q29 -47 74 -79t98 -32q59 0 94 51.5t35 135.5v1118h184v-1104q0 -78 -17 -146.5t-55 -118.5t-101.5 -79t-155.5 -29q-39 0 -78 11.5t-76 32t-68.5 48t-56.5 60.5z" />
<glyph unicode="K" horiz-adv-x="1214" d="M174 0v1452h184v-641l535 641h221l-561 -666l600 -786h-242l-553 741v-741h-184z" />
<glyph unicode="L" horiz-adv-x="921" d="M174 0v1452h184v-1282h476v-170h-660z" />
<glyph unicode="M" horiz-adv-x="1820" d="M84 0l213 1452h192l318 -891q14 -39 32.5 -96t34.5 -111q20 -63 39 -131q20 63 39 123q16 51 32.5 102.5t29.5 86.5l332 917h178l200 -1452h-184l-100 770q-12 94 -22.5 201.5t-18.5 199.5q-27 -94 -56.5 -185t-58.5 -171l-301 -815h-160l-295 819q-29 78 -57.5 168 t-56.5 184q-8 -92 -19.5 -197.5t-25.5 -203.5l-103 -770h-182z" />
<glyph unicode="N" horiz-adv-x="1607" d="M174 0v1452h174l920 -1171v1171h166v-1452h-174l-918 1171v-1171h-168z" />
<glyph unicode="O" horiz-adv-x="1722" d="M102 723q0 152 60.5 289t165 240.5t243 164t293.5 60.5q160 0 298 -58.5t239.5 -160t160 -237.5t58.5 -292q0 -158 -60.5 -295t-165 -238.5t-242.5 -161t-294 -59.5t-293 58.5t-240.5 159t-163 236.5t-59.5 294zM295 729q0 -117 45 -222.5t122 -185t180 -125.5t220 -46 q123 0 225.5 44t178 120.5t117.5 182t42 226.5q0 123 -41 229.5t-115.5 185.5t-179 124t-229.5 45q-121 0 -224.5 -47.5t-179 -126t-118.5 -183t-43 -221.5z" />
<glyph unicode="P" horiz-adv-x="999" d="M174 0v1452h318q215 0 336.5 -102.5t121.5 -307.5q0 -90 -33.5 -167.5t-98 -135t-157 -90.5t-208.5 -33h-95v-616h-184zM358 776h103q141 0 220 71t79 183q0 123 -66.5 192.5t-226.5 69.5h-109v-516z" />
<glyph unicode="Q" horiz-adv-x="1722" d="M102 723q0 152 60.5 289t165 240.5t243 164t293.5 60.5q160 0 298 -58.5t239.5 -160t160 -237.5t58.5 -292q0 -94 -21.5 -177t-57.5 -154.5t-84 -132t-101 -105.5l192 -240l-174 -61l-162 204q-72 -39 -158.5 -63.5t-195.5 -24.5q-156 0 -293 58.5t-240.5 159t-163 236.5 t-59.5 294zM295 729q0 -117 44 -222.5t120 -185t178 -125.5t219 -46q61 0 123.5 12t122.5 39l-234 293l174 61l205 -256q74 72 126 176.5t52 247.5q0 123 -41 229.5t-115.5 185.5t-179 124t-229.5 45q-121 0 -224.5 -47.5t-179 -126t-118.5 -183t-43 -221.5z" />
<glyph unicode="R" horiz-adv-x="1087" d="M174 0v1452h361q117 0 201.5 -28.5t142 -80t85 -122t27.5 -154.5q0 -160 -99 -267.5t-294 -131.5l473 -668h-227l-438 651h-48v-651h-184zM358 811h111q180 0 256 63.5t76 176.5q0 51 -13.5 96t-46 76.5t-89 50t-142.5 18.5h-152v-481z" />
<glyph unicode="S" horiz-adv-x="1026" d="M74 270l159 82q29 -90 97.5 -151.5t173.5 -61.5q55 0 99 18.5t74 50.5t45 75t15 90q0 86 -46 139t-113.5 94t-148.5 78t-148.5 88t-113.5 126t-46 192q0 78 29.5 148.5t84 122.5t128 83t159.5 31q135 0 231.5 -60.5t155.5 -177.5l-147 -84q-35 74 -98.5 118t-143.5 44 q-92 0 -152.5 -59.5t-60.5 -155.5q0 -82 46 -135.5t115 -94.5t149.5 -78.5t149.5 -89t115 -125t46 -188.5q0 -86 -32 -161.5t-88 -131t-136 -87.5t-176 -32q-154 0 -264.5 82t-157.5 211z" />
<glyph unicode="T" horiz-adv-x="935" d="M18 1284v168h902v-168h-359v-1284h-184v1284h-359z" />
<glyph unicode="U" horiz-adv-x="1429" d="M174 545v907h184v-885q0 -127 30 -209t80 -130t113.5 -66.5t131.5 -18.5q55 0 119.5 13.5t118 56.5t89 122t35.5 210v907h180v-887q0 -170 -46 -282.5t-121.5 -179t-174 -94t-202.5 -27.5q-121 0 -219.5 32.5t-169 102t-109.5 175t-39 253.5z" />
<glyph unicode="V" horiz-adv-x="1349" d="M31 1452h200l340 -897q10 -29 27.5 -77t34.5 -95q20 -55 43 -117q20 59 41 115q16 47 34.5 95t28.5 77l342 899h195l-569 -1452h-154z" />
<glyph unicode="W" horiz-adv-x="2134" d="M43 1452h199l313 -920q18 -53 35.5 -117.5t34.5 -129.5q16 66 32.5 127t36.5 120l295 920h162l295 -920q18 -59 35.5 -120.5t34.5 -124.5q16 63 33.5 126.5t35.5 118.5l313 920h193l-506 -1452h-153l-295 911q-20 59 -37 125t-33 131q-16 -70 -34.5 -137t-35.5 -121 l-295 -909h-153z" />
<glyph unicode="X" horiz-adv-x="1214" d="M68 0l432 750l-408 702h201l311 -557l303 557h207l-414 -702l447 -750h-209l-338 602l-332 -602h-200z" />
<glyph unicode="Y" horiz-adv-x="1175" d="M31 1452h209l354 -629l352 629h199l-467 -801v-651h-184v651z" />
<glyph unicode="Z" horiz-adv-x="1091" d="M10 0l744 1290h-631v162h921l-735 -1282h746v-170h-1045z" />
<glyph unicode="[" horiz-adv-x="634" d="M205 -348v1902h352v-133h-195v-1634h195v-135h-352z" />
<glyph unicode="\" horiz-adv-x="749" d="M63 1452h164l457 -1452h-164z" />
<glyph unicode="]" horiz-adv-x="634" d="M78 -213h196v1634h-196v133h354v-1902h-354v135z" />
<glyph unicode="^" horiz-adv-x="1519" d="M301 690l387 762h160l371 -762h-199l-256 537l-264 -537h-199z" />
<glyph unicode="_" horiz-adv-x="1044" d="M-10 -281h1065v-163h-1065v163z" />
<glyph unicode="`" horiz-adv-x="696" d="M131 1325l135 109l258 -275l-94 -76z" />
<glyph unicode="a" horiz-adv-x="1163" d="M92 440q0 100 35 187.5t95.5 151t141 100t173.5 36.5q92 0 170.5 -36.5t132.5 -106.5v125h170v-897h-170v129q-45 -68 -125 -107.5t-178 -39.5q-94 0 -175 34.5t-141.5 96t-94.5 145.5t-34 182zM266 449q0 -66 22.5 -124.5t62.5 -101.5t93.5 -67.5t114.5 -24.5 q66 0 119 23.5t92 65.5t59.5 100.5t20.5 128.5q0 145 -82 231t-209 86q-61 0 -114.5 -24.5t-93.5 -67.5t-62.5 -101.5t-22.5 -123.5z" />
<glyph unicode="b" horiz-adv-x="1163" d="M154 0v1534h170v-766q45 68 124.5 107.5t178.5 39.5q94 0 175 -34.5t140 -96t94 -145.5t35 -182q0 -100 -35 -187.5t-95 -151t-141 -100t-173 -36.5t-171 36.5t-132 106.5v-125h-170zM313 449q0 -145 82 -231.5t209 -86.5q61 0 114.5 24.5t93.5 67.5t62.5 101.5 t22.5 124.5t-22.5 124t-62.5 101t-93 67.5t-115 24.5q-66 0 -119 -23.5t-92 -65.5t-59.5 -100.5t-20.5 -127.5z" />
<glyph unicode="c" horiz-adv-x="909" d="M92 440q0 98 37 184.5t101.5 151t153.5 101t194 36.5q63 0 123.5 -13t113.5 -36v-172q-53 29 -112.5 46.5t-124.5 17.5q-68 0 -123.5 -24.5t-95.5 -65.5t-61.5 -97.5t-21.5 -117.5t21.5 -116.5t61.5 -97.5t95.5 -67t123.5 -25q57 0 120.5 14.5t118.5 47.5v-174 q-53 -25 -119.5 -38t-132.5 -13q-117 0 -206 40.5t-148 105.5t-89 146.5t-30 165.5z" />
<glyph unicode="d" horiz-adv-x="1163" d="M92 440q0 100 35 187.5t95.5 151t141 100t173.5 36.5q92 0 171.5 -37.5t131.5 -105.5v762h170v-1534h-170v129q-45 -68 -125 -107.5t-178 -39.5q-94 0 -175 34.5t-141.5 96t-94.5 145.5t-34 182zM266 449q0 -66 22.5 -124.5t62.5 -101.5t93.5 -67.5t114.5 -24.5 q66 0 119 23.5t91 65.5t58.5 100.5t20.5 128.5q0 145 -81 231t-208 86q-61 0 -114.5 -24.5t-93.5 -67.5t-62.5 -101.5t-22.5 -123.5z" />
<glyph unicode="e" horiz-adv-x="1048" d="M92 446q0 109 36 196t95.5 147.5t139 93t167.5 32.5q94 0 172 -31.5t134.5 -91t88 -142.5t31.5 -183q0 -27 -1 -41t-1 -29h-684q2 -57 24.5 -106t60.5 -85t88.5 -56.5t109.5 -20.5q86 0 155.5 38t116.5 99l117 -92q-80 -98 -178 -145t-227 -47q-98 0 -180.5 32.5 t-140.5 93t-91 146.5t-33 192zM272 535h506q0 49 -17.5 93t-50 76.5t-79.5 52t-107 19.5q-55 0 -99 -20.5t-77 -54t-52.5 -77.5t-23.5 -89z" />
<glyph unicode="f" horiz-adv-x="622" d="M43 754v143h133v334q0 150 63.5 231.5t219.5 81.5q35 0 70.5 -4t58.5 -8v-154q-25 4 -55.5 8.5t-55.5 4.5q-74 0 -102.5 -41t-28.5 -131v-322h234v-143h-234v-754h-170v754h-133z" />
<glyph unicode="g" horiz-adv-x="1148" d="M92 449q0 98 34 184t93.5 148.5t139 98t169.5 35.5q92 0 169 -36.5t128 -104.5v123h170v-858q0 -113 -22.5 -201t-75.5 -149.5t-139 -93t-213 -31.5q-193 0 -296.5 93t-115.5 253h160q8 -86 70.5 -148.5t187.5 -62.5q70 0 122 15.5t86 51t50 95t16 147.5v135 q-43 -66 -121.5 -104.5t-175.5 -38.5q-92 0 -172 35t-138 94t-92 141t-34 179zM264 457q0 -66 22.5 -122t61.5 -98t91.5 -67t111.5 -25q63 0 115.5 24t90.5 64.5t58.5 98t20.5 125.5q0 72 -21.5 129t-59.5 98t-90.5 62.5t-113.5 21.5q-59 0 -111.5 -24.5t-91.5 -66.5 t-61.5 -98.5t-22.5 -121.5z" />
<glyph unicode="h" horiz-adv-x="1079" d="M154 0v1534h170v-756q41 57 117.5 96t168.5 39q147 0 231.5 -84t84.5 -266v-563h-170v539q0 117 -47 172t-144 55q-49 0 -93 -18.5t-77 -52t-52 -80t-19 -101.5v-514h-170z" />
<glyph unicode="i" horiz-adv-x="477" d="M115 1268q0 51 35.5 87t87.5 36q51 0 86.5 -36t35.5 -87t-35.5 -87t-86.5 -36t-87 36t-36 87zM154 0v897h170v-897h-170z" />
<glyph unicode="j" horiz-adv-x="477" d="M115 1268q0 51 35.5 87t87.5 36q51 0 86.5 -36t35.5 -87t-35.5 -87t-86.5 -36t-87 36t-36 87zM154 -412v1309h170v-1309h-170z" />
<glyph unicode="k" horiz-adv-x="913" d="M154 0v1534h170v-1016l333 379h224l-392 -408l414 -489h-225l-354 436v-436h-170z" />
<glyph unicode="l" horiz-adv-x="477" d="M154 0v1534h170v-1534h-170z" />
<glyph unicode="m" horiz-adv-x="1570" d="M154 0v897h157v-121q37 59 107.5 98t156.5 39q98 0 159 -37.5t95 -101.5q47 59 121 99t172 40q135 0 215 -84t80 -266v-563h-168v539q0 117 -40 172t-128 55q-92 0 -151.5 -68.5t-59.5 -177.5v-520h-170v541q0 117 -38.5 171t-126.5 54q-47 0 -85 -18.5t-67 -52t-44 -80 t-15 -101.5v-514h-170z" />
<glyph unicode="n" horiz-adv-x="1079" d="M154 0v897h163v-119q41 55 112 95t169 40q156 0 242 -84t86 -266v-563h-170v539q0 117 -47 172t-144 55q-49 0 -93 -18.5t-77 -52t-52 -80t-19 -101.5v-514h-170z" />
<glyph unicode="o" horiz-adv-x="1122" d="M92 442q0 96 38 182.5t102.5 151t150.5 101t182 36.5q98 0 183.5 -34.5t147.5 -97t98 -147.5t36 -183t-37 -184.5t-101.5 -150t-150.5 -100t-184 -36.5t-183 34.5t-147.5 97t-98.5 147.5t-36 183zM266 453q0 -66 23.5 -123.5t63.5 -99.5t94.5 -66.5t117.5 -24.5 q61 0 114.5 23.5t92.5 65.5t61.5 97.5t22.5 118.5q0 66 -23.5 123.5t-63.5 99.5t-94 66.5t-118 24.5q-61 0 -114.5 -23.5t-92.5 -65.5t-61.5 -97.5t-22.5 -118.5z" />
<glyph unicode="p" horiz-adv-x="1159" d="M154 -412v1309h170v-129q45 68 124.5 107.5t178.5 39.5q94 0 175 -34.5t140 -96t92 -145.5t33 -182q0 -102 -34 -189.5t-93 -151t-139 -99t-174 -35.5q-92 0 -172 37.5t-131 105.5v-537h-170zM315 449q0 -72 21.5 -130.5t60.5 -100.5t92.5 -64.5t114.5 -22.5t114.5 24.5 t91.5 66.5t59.5 100.5t21.5 126.5q0 66 -22.5 124t-60.5 101t-90 67.5t-114 24.5q-66 0 -119 -23.5t-91 -65.5t-58.5 -100.5t-20.5 -127.5z" />
<glyph unicode="q" horiz-adv-x="1161" d="M92 440q0 100 35 187.5t94.5 151t140 100t173.5 36.5q92 0 170.5 -36.5t132.5 -106.5v125h170v-1309h-170v541q-45 -68 -125 -107.5t-178 -39.5q-96 0 -177.5 34.5t-139.5 96t-92 145.5t-34 182zM268 449q0 -68 22.5 -125.5t60.5 -100.5t91.5 -67.5t114.5 -24.5 q66 0 119 23.5t92 65.5t59.5 100.5t20.5 128.5q0 145 -82 231t-209 86q-61 0 -113.5 -24.5t-91.5 -67.5t-61.5 -101.5t-22.5 -123.5z" />
<glyph unicode="r" horiz-adv-x="722" d="M154 0v897h163v-139q41 74 105.5 115.5t157.5 41.5q29 0 59.5 -4t52.5 -10l-18 -178q-61 31 -142 31q-88 0 -148 -73t-60 -202v-479h-170z" />
<glyph unicode="s" horiz-adv-x="786" d="M84 127l127 100q29 -43 72 -69.5t98 -26.5q53 0 93 26.5t40 86.5q0 45 -29.5 71.5t-73.5 46t-96.5 39t-96.5 49t-73.5 77.5t-29.5 126q0 51 20.5 99.5t57 84t89 57t117.5 21.5q98 0 162 -35.5t109 -107.5l-131 -78q-23 37 -60 58.5t-84 21.5q-51 0 -82.5 -30.5 t-31.5 -75.5q0 -47 29.5 -75t74.5 -48.5t98.5 -40t98.5 -49t74.5 -77.5t29.5 -124q0 -55 -20.5 -104.5t-60.5 -86t-97 -59t-129 -22.5q-100 0 -172 36.5t-123 108.5z" />
<glyph unicode="t" horiz-adv-x="534" d="M20 752v145h142v332h170v-332h182v-145h-182v-752h-170v752h-142z" />
<glyph unicode="u" horiz-adv-x="1085" d="M154 399v498h170v-477q0 -59 8 -111.5t31.5 -91.5t67.5 -62.5t116 -23.5q70 0 112.5 25.5t65.5 66.5t30 91.5t7 99.5v483h170v-471q0 -86 -16.5 -166t-60.5 -142.5t-121 -99t-195 -36.5q-117 0 -192 36.5t-118 95t-59 133.5t-16 152z" />
<glyph unicode="v" horiz-adv-x="968" d="M14 897h195l184 -442q25 -59 49.5 -127t44.5 -127q23 59 48.5 126.5t46.5 114.5l188 455h184l-391 -897h-151z" />
<glyph unicode="w" horiz-adv-x="1423" d="M25 897h188l170 -483q16 -47 31.5 -101.5t25.5 -101.5q8 47 21.5 100.5t25.5 94.5l150 491h154l149 -483q16 -53 30.5 -105.5t24.5 -97.5q4 23 14.5 55.5t20.5 63.5q10 37 23 76l166 491h180l-332 -897h-154l-153 492q-10 35 -24.5 89t-26.5 107q-12 -53 -26.5 -107.5 t-25.5 -88.5l-147 -492h-154z" />
<glyph unicode="x" horiz-adv-x="921" d="M10 0l355 459l-332 438h211q63 -86 116.5 -159.5t102.5 -145.5q51 72 109.5 150.5t115.5 154.5h201l-330 -438l352 -459h-215q-27 37 -58.5 81t-62 89t-60.5 88t-54 78q-47 -72 -114.5 -162t-131.5 -174h-205z" />
<glyph unicode="y" horiz-adv-x="964" d="M12 897h201l158 -322q31 -63 67.5 -138t67.5 -142q29 63 55.5 124.5t54.5 125.5l160 352h178l-620 -1309h-172l252 523z" />
<glyph unicode="z" horiz-adv-x="919" d="M45 0l514 748h-457v149h772l-518 -745h490v-152h-801z" />
<glyph unicode="{" horiz-adv-x="749" d="M104 551v133q61 0 98.5 16.5t59 50t28.5 84t7 119.5v273q0 180 86 253.5t248 73.5h47v-133q-55 0 -96 -9t-67 -33.5t-39 -67.5t-13 -109v-203q0 -98 -7 -162.5t-25.5 -107.5t-51.5 -69.5t-84 -45.5q51 -18 85 -45.5t52.5 -77t25.5 -123t7 -184.5v-159q0 -72 11 -117 t36 -73t65.5 -38t100.5 -10v-135h-76q-76 0 -133 15.5t-95 59.5t-57.5 121.5t-19.5 202.5v205q0 78 -7 133t-28.5 91t-59.5 53.5t-98 17.5z" />
<glyph unicode="|" horiz-adv-x="491" d="M164 -412v2052h166v-2052h-166z" />
<glyph unicode="}" horiz-adv-x="749" d="M72 -213q59 0 100 10t65.5 38t36 73t11.5 117v159q0 111 7 184.5t25.5 123t51 77t86.5 45.5q-51 18 -84 45t-51.5 70t-25.5 107.5t-7 162.5v203q0 66 -13.5 109t-39 67.5t-66.5 33.5t-96 9v133h47q162 0 248 -73.5t86 -253.5v-273q0 -70 7 -120t28.5 -83.5t58.5 -50 t98 -16.5v-133q-59 0 -97 -17.5t-59.5 -53.5t-28.5 -91t-7 -133v-205q0 -125 -19.5 -202.5t-58.5 -121.5t-95.5 -59.5t-132.5 -15.5h-75v135z" />
<glyph unicode="~" horiz-adv-x="1519" d="M258 610q49 70 122 115t165 45q57 0 113.5 -22.5t111.5 -50t108.5 -50t102.5 -22.5q57 0 113.5 31.5t95.5 80.5l78 -147q-59 -66 -133 -107t-160 -41q-59 0 -115.5 22.5t-110 50.5t-104.5 50.5t-102 22.5q-66 0 -116 -37t-85 -90z" />
<glyph unicode="&#xa1;" horiz-adv-x="534" d="M182 924q0 55 40 95t95 40t95.5 -40t40.5 -95t-40.5 -95.5t-95.5 -40.5t-95 40t-40 96zM236 -412v1074h163v-1074h-163z" />
<glyph unicode="&#xa2;" d="M205 719q0 90 31.5 171t88 144.5t134.5 103.5t172 50v264h106v-262q102 -10 191 -47v-172q-86 49 -191 61v-606q47 4 97.5 18.5t95.5 40.5v-174q-41 -18 -90 -31.5t-103 -17.5v-262h-106v262q-104 8 -184 50t-134.5 106.5t-81 142.5t-26.5 158zM389 729 q0 -111 65.5 -194.5t176.5 -104.5v598q-111 -20 -176.5 -104t-65.5 -195z" />
<glyph unicode="&#xa3;" d="M131 659v146h123q-29 63 -49.5 125.5t-20.5 122.5q0 84 29 159.5t84 134t134 92.5t179 34q180 0 284.5 -88.5t141.5 -231.5l-153 -57q-29 115 -105 172t-174 57q-111 0 -176.5 -70.5t-65.5 -193.5q0 -70 22 -132.5t50 -123.5h379v-146h-311q23 -53 36 -107t13 -116 q0 -53 -25.5 -114.5t-72.5 -106.5q51 0 90 -11t75.5 -24.5t77.5 -25t101 -11.5q72 0 124 18.5t95 55.5l69 -139q-119 -96 -294 -96q-51 0 -96.5 12t-89.5 27.5t-87 27.5t-90 12q-57 0 -113.5 -23.5t-85.5 -51.5l-77 127q45 29 87 60.5t73.5 68.5t50 82t18.5 104 q0 57 -17.5 114.5t-44.5 116.5h-188z" />
<glyph unicode="&#xa4;" horiz-adv-x="1392" d="M88 217l207 207q-39 57 -60.5 124.5t-21.5 145.5q0 76 23.5 145.5t66.5 127.5l-213 211l117 116l213 -213q57 41 124.5 62.5t141.5 21.5q152 0 268 -82l211 211l117 -116l-209 -209q35 -53 56.5 -121t21.5 -146q0 -74 -21.5 -142t-62.5 -126l217 -217l-117 -117l-217 217 q-57 -41 -125.5 -63.5t-146.5 -22.5q-74 0 -141.5 20.5t-122.5 57.5l-209 -209zM387 705q0 -66 23.5 -123.5t63.5 -99.5t94.5 -66.5t117.5 -24.5q61 0 114.5 23.5t92.5 65.5t61.5 97.5t22.5 118.5q0 66 -23.5 123.5t-63.5 99.5t-94.5 66.5t-117.5 24.5q-61 0 -114.5 -23.5 t-92.5 -65.5t-61.5 -97.5t-22.5 -118.5z" />
<glyph unicode="&#xa5;" d="M45 1452h209l346 -614l344 614h199l-459 -786v-2h334v-146h-334v-180h334v-145h-334v-193h-184v193h-334v145h334v180h-334v146h334v2z" />
<glyph unicode="&#xa6;" horiz-adv-x="514" d="M174 391h166v-784h-166v784zM174 633v786h166v-786h-166z" />
<glyph unicode="&#xa7;" horiz-adv-x="1083" d="M127 614q0 55 16.5 111.5t52 105t89 82t127.5 45.5q-121 57 -168 126t-47 173q0 63 25.5 119t71.5 96.5t110.5 65.5t142.5 25q166 0 260 -87t84 -257h-174q6 86 -36 140t-142 54q-66 0 -119 -39t-53 -119q0 -57 42 -108t134 -94l157 -74q117 -53 179.5 -150.5 t62.5 -214.5q0 -129 -70.5 -218t-195.5 -128q115 -49 159 -122.5t44 -165.5q0 -78 -27 -138.5t-74 -101.5t-111.5 -62.5t-140.5 -21.5q-100 0 -167.5 28.5t-109.5 74.5t-60.5 106.5t-18.5 126.5h176q0 -86 50 -135.5t136 -49.5q92 0 133.5 50.5t41.5 115.5q0 66 -38 115 t-130 88l-123 51q-129 53 -209 145.5t-80 241.5zM303 614q0 -47 18.5 -89t50 -73.5t74 -50t89.5 -18.5t89 18.5t73.5 50t50 73.5t18.5 89t-18.5 89t-50 74t-73.5 50.5t-89 18.5t-89.5 -18.5t-74 -50.5t-50 -73.5t-18.5 -89.5z" />
<glyph unicode="&#xa8;" horiz-adv-x="696" d="M49 1268q0 49 35 83.5t84 34.5t84 -34.5t35 -83.5t-35 -84t-84 -35t-84 35t-35 84zM410 1268q0 49 34.5 83.5t83.5 34.5t84 -34.5t35 -83.5t-35 -84t-84 -35t-83.5 35t-34.5 84z" />
<glyph unicode="&#xa9;" horiz-adv-x="1734" d="M106 727q0 158 60.5 296t164 241.5t242 164t295.5 60.5q158 0 296.5 -60.5t241.5 -164t163.5 -241.5t60.5 -296t-60.5 -296t-163.5 -241.5t-241.5 -164t-296.5 -60.5t-296 60.5t-241.5 164t-164 241.5t-60.5 296zM205 727q0 -137 52 -258t142 -211t211 -142.5t258 -52.5 t258 52.5t211 142.5t142.5 211t52.5 258t-52.5 258t-142.5 211t-210.5 142.5t-258.5 52.5q-137 0 -258 -52.5t-211 -142.5t-142 -211t-52 -258zM391 729q0 106 38 195.5t103.5 154t155.5 100t193 35.5q133 0 223 -46t168 -136l-115 -108q-47 61 -116.5 101t-161.5 40 q-55 0 -111.5 -19.5t-103 -61.5t-75 -105.5t-28.5 -149.5q0 -72 25.5 -133t69.5 -106.5t103.5 -71t127.5 -25.5q78 0 144.5 37t125.5 102l115 -102q-66 -80 -164 -133t-225 -53q-106 0 -196.5 35.5t-156 100t-102.5 154t-37 195.5z" />
<glyph unicode="&#xaa;" horiz-adv-x="1175" d="M168 1087q0 92 29.5 165t80 124t118 79t143.5 28q90 0 146 -30t97 -81v96h156v-749h-156v90q-45 -59 -108.5 -81.5t-134.5 -22.5q-86 0 -155 30.5t-117 83.5t-73.5 122t-25.5 146zM190 422v149h781v-149h-781zM332 1094q0 -57 19.5 -103.5t51 -78t71.5 -48t83 -16.5 q111 0 168 70.5t57 175.5q0 63 -19.5 109t-50 77t-71.5 45t-84 14q-49 0 -90 -20.5t-71.5 -55t-47 -78.5t-16.5 -91z" />
<glyph unicode="&#xab;" horiz-adv-x="808" d="M45 469l268 395l111 -78l-225 -317l225 -315l-111 -78zM377 469l264 379l113 -76l-224 -303l224 -301l-113 -78z" />
<glyph unicode="&#xac;" horiz-adv-x="1392" d="M113 510v164h1122v-520h-166v356h-956z" />
<glyph unicode="&#xad;" horiz-adv-x="704" d="M94 494v145h518v-145h-518z" />
<glyph unicode="&#xae;" horiz-adv-x="1734" d="M186 932q0 137 52.5 258t142.5 211t211 142t258 52t258 -52t211 -142t142 -211t52 -258t-52 -258t-142 -211t-211 -142.5t-258 -52.5t-258 52.5t-211 142.5t-142.5 211t-52.5 258zM301 932q0 -115 43 -214.5t118 -174t174 -117.5t214 -43q113 0 213 43t175 117.5t118 174 t43 214.5q0 113 -43 213t-118 175t-175 118t-213 43q-115 0 -214 -43t-174 -118t-118 -175.5t-43 -212.5zM621 549v784h219q74 0 125 -17.5t82.5 -46t47 -65.5t15.5 -74q0 -92 -58.5 -152t-166.5 -73l254 -356h-146l-237 346h-11v-346h-124zM745 991h52q37 0 70.5 4t58 17.5 t40 39t15.5 68.5q0 66 -43 90.5t-111 24.5h-82v-244z" />
<glyph unicode="&#xaf;" horiz-adv-x="610" d="M45 1192v145h518v-145h-518z" />
<glyph unicode="&#xb0;" horiz-adv-x="749" d="M43 1223q0 70 26.5 130t71.5 105t105.5 70.5t128.5 25.5q70 0 130 -25.5t104 -70.5t70 -105.5t26 -129.5q0 -20 -4.5 -58.5t-26.5 -85.5q-41 -86 -122 -138t-177 -52q-70 0 -130.5 26.5t-105.5 71.5t-70.5 105.5t-25.5 130.5zM213 1227q0 -68 47 -116t115 -48t116 48 t48 116q0 33 -13.5 62.5t-35 52t-52 36t-63.5 13.5q-70 0 -116 -49.5t-46 -114.5z" />
<glyph unicode="&#xb1;" horiz-adv-x="1392" d="M123 0v164h1147v-164h-1147zM123 745v164h489v424h168v-424h490v-164h-490v-428h-168v428h-489z" />
<glyph unicode="&#xb2;" horiz-adv-x="796" d="M94 1145q-4 147 72 234t219 87q76 0 131 -23.5t89 -62.5t50.5 -88t16.5 -100q0 -55 -19.5 -102.5t-52.5 -89.5t-76 -80.5t-92 -77.5l-74 -60h334v-139h-588v100l205 158q55 43 95 79t65 68.5t36 63.5t11 66q0 70 -30.5 114.5t-104.5 44.5q-43 0 -70.5 -17t-43 -45 t-19.5 -62.5t-2 -67.5h-152z" />
<glyph unicode="&#xb3;" horiz-adv-x="763" d="M94 883h154q2 -59 33.5 -97t91.5 -38q59 0 94 36.5t35 89.5q0 57 -36 95.5t-108 38.5h-63v112h53q66 0 98.5 34t32.5 85t-31.5 80t-78.5 29q-53 0 -82 -35t-25 -88h-143q0 113 68.5 177t187.5 64q63 0 111.5 -18t81 -49t48 -71t15.5 -83q0 -119 -105 -170 q57 -16 94 -72.5t37 -117.5q0 -49 -17 -96.5t-54 -82t-91.5 -56t-127.5 -21.5q-68 0 -119 21.5t-85 57t-51.5 81t-17.5 94.5z" />
<glyph unicode="&#xb4;" horiz-adv-x="696" d="M172 1163l258 271l133 -105l-297 -244z" />
<glyph unicode="&#xb5;" horiz-adv-x="1097" d="M154 -412v1309h170v-494q0 -115 59 -189.5t166 -74.5q53 0 95 21.5t70.5 57.5t44 83t15.5 100v496h170v-897h-164v125q-25 -59 -85 -102t-150 -43q-86 0 -141.5 40.5t-79.5 92.5v-525h-170z" />
<glyph unicode="&#xb6;" horiz-adv-x="1347" d="M180 1049q0 84 32 157.5t87 128t131 86t162 31.5h569v-129h-129v-1667h-160v1667h-198v-1667h-160v997q-72 12 -132 46t-105.5 86.5t-71 119t-25.5 144.5z" />
<glyph unicode="&#xb7;" horiz-adv-x="448" d="M86 600q0 59 40 99t99 40t99.5 -40t40.5 -99t-40.5 -99t-99.5 -40t-99 40t-40 99z" />
<glyph unicode="&#xb8;" horiz-adv-x="696" d="M166 -332l199 264l129 -106l-218 -246z" />
<glyph unicode="&#xb9;" horiz-adv-x="528" d="M61 1311v141h308v-809h-152v668h-156z" />
<glyph unicode="&#xba;" horiz-adv-x="1175" d="M184 1090q0 82 32 153.5t86 124.5t126 85t154 32t153.5 -30t123.5 -81t82 -122.5t30 -153.5q0 -84 -31 -156t-85 -125t-127 -84t-155 -31q-84 0 -154.5 30t-122.5 81t-82 122t-30 155zM190 422v149h781v-149h-781zM342 1098q0 -53 18.5 -98.5t50 -79t76 -53t95.5 -19.5 q49 0 91 19.5t73.5 52t49 76.5t17.5 96q0 51 -18.5 97t-51 81t-75.5 54t-95 19q-49 0 -91 -19t-73.5 -52t-49 -78t-17.5 -96z" />
<glyph unicode="&#xbb;" horiz-adv-x="808" d="M55 125l224 303l-224 301l113 78l264 -379l-264 -379zM385 111l225 317l-225 315l111 78l268 -393l-268 -395z" />
<glyph unicode="&#xbc;" horiz-adv-x="1593" d="M119 1311v141h307v-809h-152v668h-155zM238 12l884 1483l115 -59l-887 -1489zM815 135v105l340 569h199v-547h133v-127h-133v-135h-148v135h-391zM977 262h229v395z" />
<glyph unicode="&#xbd;" horiz-adv-x="1724" d="M119 1311v141h307v-809h-152v668h-155zM238 12l884 1483l115 -59l-887 -1489zM969 502q-4 147 71.5 234t219.5 87q76 0 131 -23.5t88.5 -62.5t50 -88t16.5 -100q0 -55 -19.5 -102.5t-52 -89.5t-75.5 -80.5t-92 -77.5l-74 -60h334v-139h-588v100l205 158q55 43 95 79 t64.5 68.5t36 63.5t11.5 66q0 70 -31 114.5t-105 44.5q-43 0 -70.5 -17.5t-43 -45t-19.5 -62t-2 -67.5h-151z" />
<glyph unicode="&#xbe;" horiz-adv-x="1742" d="M92 883h154q2 -59 33.5 -97t91.5 -38q59 0 94 36.5t35 89.5q0 57 -36 95.5t-108 38.5h-63v112h53q66 0 98.5 34t32.5 85t-31.5 80t-78.5 29q-53 0 -82 -35t-25 -88h-143q0 113 68.5 177t187.5 64q63 0 111 -18t81 -49t48.5 -71t15.5 -83q0 -119 -105 -170 q57 -16 94 -72.5t37 -117.5q0 -49 -17 -96.5t-54 -82t-91.5 -56t-127.5 -21.5q-68 0 -119 21.5t-85 57t-51.5 81t-17.5 94.5zM387 12l885 1483l114 -59l-886 -1489zM965 135v105l340 569h198v-547h133v-127h-133v-135h-147v135h-391zM1126 262h230v395z" />
<glyph unicode="&#xbf;" horiz-adv-x="1042" d="M109 -35q0 84 30.5 153.5t79.5 121t112.5 82t129.5 36.5v299h170v-434h-94q-117 0 -187.5 -70.5t-70.5 -181.5q0 -53 19 -99t53 -81t79 -55.5t98 -20.5q51 0 97.5 21.5t81 58.5t53 88t14.5 113h170q6 -88 -24.5 -165t-88 -135t-137.5 -92t-172 -34q-90 0 -165.5 29.5 t-131 83t-86 126t-30.5 156.5zM408 926q0 55 39.5 95t95.5 40q55 0 95 -40t40 -95t-40 -95t-95 -40t-95 39.5t-40 95.5z" />
<glyph unicode="&#xc0;" horiz-adv-x="1347" d="M31 0l569 1452h154l563 -1452h-201l-145 389h-600l-146 -389h-194zM397 1714l96 152l322 -221l-78 -121zM430 545h479l-133 352q-10 27 -28.5 75t-34.5 95q-20 55 -43 119q-20 -63 -41 -117q-16 -47 -35 -94t-29 -76z" />
<glyph unicode="&#xc1;" horiz-adv-x="1347" d="M31 0l569 1452h154l563 -1452h-201l-145 389h-600l-146 -389h-194zM430 545h479l-133 352q-10 27 -28.5 75t-34.5 95q-20 55 -43 119q-20 -63 -41 -117q-16 -47 -35 -94t-29 -76zM555 1645l318 221l96 -150l-338 -190z" />
<glyph unicode="&#xc2;" horiz-adv-x="1347" d="M31 0l569 1452h154l563 -1452h-201l-145 389h-600l-146 -389h-194zM357 1636l313 222l319 -224l-90 -98l-229 141l-225 -141zM430 545h479l-133 352q-10 27 -28.5 75t-34.5 95q-20 55 -43 119q-20 -63 -41 -117q-16 -47 -35 -94t-29 -76z" />
<glyph unicode="&#xc3;" horiz-adv-x="1347" d="M31 0l569 1452h154l563 -1452h-201l-145 389h-600l-146 -389h-194zM284 1585q0 106 56.5 176t166.5 70q45 0 85 -18.5t77 -42t71 -42t71 -18.5q41 0 65.5 28.5t24.5 82.5h131q0 -106 -56.5 -176t-166.5 -70q-49 0 -92.5 18.5t-80 42t-69.5 42t-62 18.5q-41 0 -65.5 -29 t-24.5 -82h-131zM430 545h479l-133 352q-10 27 -28.5 75t-34.5 95q-20 55 -43 119q-20 -63 -41 -117q-16 -47 -35 -94t-29 -76z" />
<glyph unicode="&#xc4;" horiz-adv-x="1347" d="M31 0l569 1452h154l563 -1452h-201l-145 389h-600l-146 -389h-194zM379 1698q0 49 35 84t84 35t84 -35t35 -84t-35 -84t-84 -35t-84 35t-35 84zM430 545h479l-133 352q-10 27 -28.5 75t-34.5 95q-20 55 -43 119q-20 -63 -41 -117q-16 -47 -35 -94t-29 -76zM739 1698 q0 49 35 84t84 35t84 -35t35 -84t-35 -84t-84 -35t-84 35t-35 84z" />
<glyph unicode="&#xc5;" horiz-adv-x="1347" d="M31 0l544 1389q-43 25 -68.5 67.5t-25.5 95.5q0 39 15.5 75t43 61.5t62.5 41t76 15.5q82 0 139 -55.5t57 -137.5q0 -53 -26.5 -96t-69.5 -70l539 -1386h-201l-145 389h-600l-146 -389h-194zM430 545h479l-133 352q-10 27 -28.5 75t-34.5 95q-20 55 -43 119 q-20 -63 -41 -117q-16 -47 -35 -94t-29 -76zM584 1552q0 -39 27.5 -67.5t66.5 -28.5q41 0 67.5 27.5t26.5 68.5q0 39 -27.5 68t-66.5 29q-41 0 -67.5 -28t-26.5 -69z" />
<glyph unicode="&#xc6;" horiz-adv-x="1908" d="M16 0l637 1452h723l62 -172h-574l152 -444h551l59 -164h-551l170 -502h580l61 -170h-784l-127 389h-600l-164 -389h-195zM442 545h480l-117 352q-10 27 -24.5 75t-30.5 95q-18 55 -37 119q-25 -63 -47 -117q-20 -47 -41 -94t-31 -76z" />
<glyph unicode="&#xc7;" horiz-adv-x="1331" d="M98 721q0 170 56.5 308t156 235.5t233.5 150.5t290 53q106 0 199 -20.5t175 -58.5v-199q-72 45 -172 76.5t-215 31.5q-111 0 -206 -43t-165.5 -118.5t-110.5 -180t-40 -229.5q0 -123 41 -227.5t113.5 -180t172 -118.5t214.5 -43q106 0 207.5 25.5t179.5 78.5v-190 q-86 -41 -187.5 -63.5t-214.5 -22.5q-160 0 -293 56t-230 154.5t-150.5 232.5t-53.5 292zM508 -332l199 264l129 -106l-217 -246z" />
<glyph unicode="&#xc8;" horiz-adv-x="1087" d="M174 0v1452h758v-172h-574v-444h551v-164h-551v-502h580v-170h-764zM223 1714l96 152l322 -221l-78 -121z" />
<glyph unicode="&#xc9;" horiz-adv-x="1087" d="M174 0v1452h758v-172h-574v-444h551v-164h-551v-502h580v-170h-764zM405 1645l318 221l96 -150l-338 -190z" />
<glyph unicode="&#xca;" horiz-adv-x="1087" d="M174 0v1452h758v-172h-574v-444h551v-164h-551v-502h580v-170h-764zM246 1636l313 222l319 -224l-90 -98l-229 141l-225 -141z" />
<glyph unicode="&#xcb;" horiz-adv-x="1087" d="M174 0v1452h758v-172h-574v-444h551v-164h-551v-502h580v-170h-764zM252 1698q0 49 35 84t84 35t84 -35t35 -84t-35 -84t-84 -35t-84 35t-35 84zM612 1698q0 49 35 84t84 35t84 -35t35 -84t-35 -84t-84 -35t-84 35t-35 84z" />
<glyph unicode="&#xcc;" horiz-adv-x="532" d="M-37 1714l96 152l322 -221l-78 -121zM174 0v1452h184v-1452h-184z" />
<glyph unicode="&#xcd;" horiz-adv-x="532" d="M137 1645l318 221l96 -150l-338 -190zM174 0v1452h184v-1452h-184z" />
<glyph unicode="&#xce;" horiz-adv-x="532" d="M-41 1636l313 222l319 -224l-90 -98l-229 141l-225 -141zM174 0v1452h184v-1452h-184z" />
<glyph unicode="&#xcf;" horiz-adv-x="532" d="M-29 1698q0 49 35 84t84 35t84 -35t35 -84t-35 -84t-84 -35t-84 35t-35 84zM174 0v1452h184v-1452h-184zM331 1698q0 49 35 84t84 35t84 -35t35 -84t-35 -84t-84 -35t-84 35t-35 84z" />
<glyph unicode="&#xd0;" horiz-adv-x="1400" d="M66 666v165h141v621h348q168 0 306 -48t234.5 -141.5t149.5 -228.5t53 -307q0 -131 -38.5 -261t-131 -233.5t-246 -168t-384.5 -64.5h-291v666h-141zM391 166h125q170 0 282.5 42t180.5 116.5t96.5 175t28.5 217.5q0 123 -32 228.5t-101.5 181t-177 118.5t-256.5 43h-146 v-457h160v-165h-160v-500z" />
<glyph unicode="&#xd1;" horiz-adv-x="1607" d="M174 0v1452h174l920 -1171v1171h166v-1452h-174l-918 1171v-1171h-168zM413 1585q0 106 56.5 176t166.5 70q45 0 85 -18.5t77 -42t71 -42t71 -18.5q41 0 65.5 28.5t24.5 82.5h131q0 -106 -56.5 -176t-166.5 -70q-49 0 -92.5 18.5t-80 42t-69.5 42t-62 18.5 q-41 0 -65.5 -29t-24.5 -82h-131z" />
<glyph unicode="&#xd2;" horiz-adv-x="1722" d="M102 723q0 152 60.5 289t165 240.5t243 164t293.5 60.5q160 0 298 -58.5t239.5 -160t160 -237.5t58.5 -292q0 -158 -60.5 -295t-165 -238.5t-242.5 -161t-294 -59.5t-293 58.5t-240.5 159t-163 236.5t-59.5 294zM295 729q0 -117 45 -222.5t122 -185t180 -125.5t220 -46 q123 0 225.5 44t178 120.5t117.5 182t42 226.5q0 123 -41 229.5t-115.5 185.5t-179 124t-229.5 45q-121 0 -224.5 -47.5t-179 -126t-118.5 -183t-43 -221.5zM616 1714l96 152l322 -221l-78 -121z" />
<glyph unicode="&#xd3;" horiz-adv-x="1722" d="M102 723q0 152 60.5 289t165 240.5t243 164t293.5 60.5q160 0 298 -58.5t239.5 -160t160 -237.5t58.5 -292q0 -158 -60.5 -295t-165 -238.5t-242.5 -161t-294 -59.5t-293 58.5t-240.5 159t-163 236.5t-59.5 294zM295 729q0 -117 45 -222.5t122 -185t180 -125.5t220 -46 q123 0 225.5 44t178 120.5t117.5 182t42 226.5q0 123 -41 229.5t-115.5 185.5t-179 124t-229.5 45q-121 0 -224.5 -47.5t-179 -126t-118.5 -183t-43 -221.5zM680 1645l318 221l96 -150l-338 -190z" />
<glyph unicode="&#xd4;" horiz-adv-x="1722" d="M102 723q0 152 60.5 289t165 240.5t243 164t293.5 60.5q160 0 298 -58.5t239.5 -160t160 -237.5t58.5 -292q0 -158 -60.5 -295t-165 -238.5t-242.5 -161t-294 -59.5t-293 58.5t-240.5 159t-163 236.5t-59.5 294zM295 729q0 -117 45 -222.5t122 -185t180 -125.5t220 -46 q123 0 225.5 44t178 120.5t117.5 182t42 226.5q0 123 -41 229.5t-115.5 185.5t-179 124t-229.5 45q-121 0 -224.5 -47.5t-179 -126t-118.5 -183t-43 -221.5zM555 1636l313 222l319 -224l-90 -98l-229 141l-225 -141z" />
<glyph unicode="&#xd5;" horiz-adv-x="1722" d="M102 723q0 152 60.5 289t165 240.5t243 164t293.5 60.5q160 0 298 -58.5t239.5 -160t160 -237.5t58.5 -292q0 -158 -60.5 -295t-165 -238.5t-242.5 -161t-294 -59.5t-293 58.5t-240.5 159t-163 236.5t-59.5 294zM295 729q0 -117 45 -222.5t122 -185t180 -125.5t220 -46 q123 0 225.5 44t178 120.5t117.5 182t42 226.5q0 123 -41 229.5t-115.5 185.5t-179 124t-229.5 45q-121 0 -224.5 -47.5t-179 -126t-118.5 -183t-43 -221.5zM475 1585q0 106 56.5 176t166.5 70q45 0 85 -18.5t77 -42t71 -42t71 -18.5q41 0 65.5 28.5t24.5 82.5h131 q0 -106 -56.5 -176t-166.5 -70q-49 0 -92.5 18.5t-80 42t-69.5 42t-62 18.5q-41 0 -65.5 -29t-24.5 -82h-131z" />
<glyph unicode="&#xd6;" horiz-adv-x="1722" d="M102 723q0 152 60.5 289t165 240.5t243 164t293.5 60.5q160 0 298 -58.5t239.5 -160t160 -237.5t58.5 -292q0 -158 -60.5 -295t-165 -238.5t-242.5 -161t-294 -59.5t-293 58.5t-240.5 159t-163 236.5t-59.5 294zM295 729q0 -117 45 -222.5t122 -185t180 -125.5t220 -46 q123 0 225.5 44t178 120.5t117.5 182t42 226.5q0 123 -41 229.5t-115.5 185.5t-179 124t-229.5 45q-121 0 -224.5 -47.5t-179 -126t-118.5 -183t-43 -221.5zM563 1698q0 49 35 84t84 35t84 -35t35 -84t-35 -84t-84 -35t-84 35t-35 84zM923 1698q0 49 35 84t84 35t84 -35 t35 -84t-35 -84t-84 -35t-84 35t-35 84z" />
<glyph unicode="&#xd7;" horiz-adv-x="1392" d="M154 180l413 412l-413 414l110 112l416 -413l412 413l116 -112l-411 -414l411 -412l-116 -117l-412 412l-416 -412z" />
<glyph unicode="&#xd8;" horiz-adv-x="1722" d="M102 723q0 152 60.5 289t165 240.5t243 164t293.5 60.5q141 0 266 -46.5t224 -127.5l176 176l92 -93l-176 -176q82 -98 128 -220t46 -261q0 -158 -60.5 -295t-165 -238.5t-242.5 -161t-294 -59.5q-137 0 -260 45.5t-223 124.5l-178 -176l-93 92l179 177 q-86 98 -133.5 221t-47.5 264zM295 729q0 -98 31.5 -190.5t91.5 -165.5l809 805q-72 59 -164 94t-203 35q-121 0 -224.5 -47.5t-179 -126t-118.5 -183t-43 -221.5zM508 279q72 -59 162 -94t192 -35q123 0 225.5 44t178 120.5t117.5 182t42 226.5q0 207 -110 358z" />
<glyph unicode="&#xd9;" horiz-adv-x="1429" d="M174 545v907h184v-885q0 -127 30 -209t80 -130t113.5 -66.5t131.5 -18.5q55 0 119.5 13.5t118 56.5t89 122t35.5 210v907h180v-887q0 -170 -46 -282.5t-121.5 -179t-174 -94t-202.5 -27.5q-121 0 -219.5 32.5t-169 102t-109.5 175t-39 253.5zM405 1714l96 152l322 -221 l-78 -121z" />
<glyph unicode="&#xda;" horiz-adv-x="1429" d="M174 545v907h184v-885q0 -127 30 -209t80 -130t113.5 -66.5t131.5 -18.5q55 0 119.5 13.5t118 56.5t89 122t35.5 210v907h180v-887q0 -170 -46 -282.5t-121.5 -179t-174 -94t-202.5 -27.5q-121 0 -219.5 32.5t-169 102t-109.5 175t-39 253.5zM518 1645l318 221l96 -150 l-338 -190z" />
<glyph unicode="&#xdb;" horiz-adv-x="1429" d="M174 545v907h184v-885q0 -127 30 -209t80 -130t113.5 -66.5t131.5 -18.5q55 0 119.5 13.5t118 56.5t89 122t35.5 210v907h180v-887q0 -170 -46 -282.5t-121.5 -179t-174 -94t-202.5 -27.5q-121 0 -219.5 32.5t-169 102t-109.5 175t-39 253.5zM404 1636l313 222l319 -224 l-90 -98l-229 141l-225 -141z" />
<glyph unicode="&#xdc;" horiz-adv-x="1429" d="M174 545v907h184v-885q0 -127 30 -209t80 -130t113.5 -66.5t131.5 -18.5q55 0 119.5 13.5t118 56.5t89 122t35.5 210v907h180v-887q0 -170 -46 -282.5t-121.5 -179t-174 -94t-202.5 -27.5q-121 0 -219.5 32.5t-169 102t-109.5 175t-39 253.5zM418 1698q0 49 35 84t84 35 t84 -35t35 -84t-35 -84t-84 -35t-84 35t-35 84zM778 1698q0 49 35 84t84 35t84 -35t35 -84t-35 -84t-84 -35t-84 35t-35 84z" />
<glyph unicode="&#xdd;" horiz-adv-x="1175" d="M31 1452h209l354 -629l352 629h199l-467 -801v-651h-184v651zM491 1645l318 221l96 -150l-338 -190z" />
<glyph unicode="&#xde;" horiz-adv-x="999" d="M174 0v1452h184v-297h134q215 0 336.5 -102.5t121.5 -307.5q0 -90 -33.5 -167.5t-98 -135t-157 -90.5t-208.5 -33h-95v-319h-184zM358 479h103q141 0 220 71t79 183q0 123 -66.5 192.5t-226.5 69.5h-109v-516z" />
<glyph unicode="&#xdf;" horiz-adv-x="1122" d="M143 0v1128q0 84 19.5 158t62.5 128t112 85t165 31q80 0 142.5 -24.5t105.5 -66.5t66.5 -98.5t23.5 -119.5q0 -78 -24.5 -129.5t-55.5 -94.5t-55.5 -86t-24.5 -104q0 -41 25.5 -70.5t63.5 -57.5t82 -56.5t82 -67.5t63.5 -92t25.5 -131q0 -74 -25.5 -137.5t-72.5 -108.5 t-113 -70.5t-145 -25.5q-106 0 -197 47l51 149q68 -47 154 -47q31 0 60.5 12.5t53 35t39 57.5t15.5 78q0 55 -24.5 91t-60.5 64.5t-79 54t-79 59.5t-60.5 81t-24.5 119q0 74 24.5 123t53.5 92t53.5 89t24.5 113q0 74 -47.5 125t-126.5 51q-100 0 -141.5 -64.5t-41.5 -156.5 v-1163h-170z" />
<glyph unicode="&#xe0;" horiz-adv-x="1163" d="M92 440q0 100 35 187.5t95.5 151t141 100t173.5 36.5q92 0 170.5 -36.5t132.5 -106.5v125h170v-897h-170v129q-45 -68 -125 -107.5t-178 -39.5q-94 0 -175 34.5t-141.5 96t-94.5 145.5t-34 182zM266 449q0 -66 22.5 -124.5t62.5 -101.5t93.5 -67.5t114.5 -24.5 q66 0 119 23.5t92 65.5t59.5 100.5t20.5 128.5q0 145 -82 231t-209 86q-61 0 -114.5 -24.5t-93.5 -67.5t-62.5 -101.5t-22.5 -123.5zM315 1325l135 109l258 -275l-94 -76z" />
<glyph unicode="&#xe1;" horiz-adv-x="1163" d="M92 440q0 100 35 187.5t95.5 151t141 100t173.5 36.5q92 0 170.5 -36.5t132.5 -106.5v125h170v-897h-170v129q-45 -68 -125 -107.5t-178 -39.5q-94 0 -175 34.5t-141.5 96t-94.5 145.5t-34 182zM266 449q0 -66 22.5 -124.5t62.5 -101.5t93.5 -67.5t114.5 -24.5 q66 0 119 23.5t92 65.5t59.5 100.5t20.5 128.5q0 145 -82 231t-209 86q-61 0 -114.5 -24.5t-93.5 -67.5t-62.5 -101.5t-22.5 -123.5zM461 1163l258 271l133 -105l-297 -244z" />
<glyph unicode="&#xe2;" horiz-adv-x="1163" d="M92 440q0 100 35 187.5t95.5 151t141 100t173.5 36.5q92 0 170.5 -36.5t132.5 -106.5v125h170v-897h-170v129q-45 -68 -125 -107.5t-178 -39.5q-94 0 -175 34.5t-141.5 96t-94.5 145.5t-34 182zM266 449q0 -66 22.5 -124.5t62.5 -101.5t93.5 -67.5t114.5 -24.5 q66 0 119 23.5t92 65.5t59.5 100.5t20.5 128.5q0 145 -82 231t-209 86q-61 0 -114.5 -24.5t-93.5 -67.5t-62.5 -101.5t-22.5 -123.5zM295 1171l286 273l275 -266l-92 -91l-185 175l-194 -177z" />
<glyph unicode="&#xe3;" horiz-adv-x="1163" d="M92 440q0 100 35 187.5t95.5 151t141 100t173.5 36.5q92 0 170.5 -36.5t132.5 -106.5v125h170v-897h-170v129q-45 -68 -125 -107.5t-178 -39.5q-94 0 -175 34.5t-141.5 96t-94.5 145.5t-34 182zM211 1139q0 106 56.5 175.5t167.5 69.5q45 0 85 -18t76.5 -42t70.5 -42 t71 -18q41 0 65.5 28.5t24.5 81.5h131q0 -106 -56.5 -176t-166.5 -70q-49 0 -92.5 18.5t-80 42t-69.5 42t-61 18.5q-41 0 -66 -28.5t-25 -81.5h-131zM266 449q0 -66 22.5 -124.5t62.5 -101.5t93.5 -67.5t114.5 -24.5q66 0 119 23.5t92 65.5t59.5 100.5t20.5 128.5 q0 145 -82 231t-209 86q-61 0 -114.5 -24.5t-93.5 -67.5t-62.5 -101.5t-22.5 -123.5z" />
<glyph unicode="&#xe4;" horiz-adv-x="1163" d="M92 440q0 100 35 187.5t95.5 151t141 100t173.5 36.5q92 0 170.5 -36.5t132.5 -106.5v125h170v-897h-170v129q-45 -68 -125 -107.5t-178 -39.5q-94 0 -175 34.5t-141.5 96t-94.5 145.5t-34 182zM266 449q0 -66 22.5 -124.5t62.5 -101.5t93.5 -67.5t114.5 -24.5 q66 0 119 23.5t92 65.5t59.5 100.5t20.5 128.5q0 145 -82 231t-209 86q-61 0 -114.5 -24.5t-93.5 -67.5t-62.5 -101.5t-22.5 -123.5zM291 1268q0 49 35 83.5t84 34.5t84 -34.5t35 -83.5t-35 -84t-84 -35t-84 35t-35 84zM652 1268q0 49 34.5 83.5t83.5 34.5t84 -34.5 t35 -83.5t-35 -84t-84 -35t-83.5 35t-34.5 84z" />
<glyph unicode="&#xe5;" horiz-adv-x="1163" d="M92 440q0 100 35 187.5t95.5 151t141 100t173.5 36.5q92 0 170.5 -36.5t132.5 -106.5v125h170v-897h-170v129q-45 -68 -125 -107.5t-178 -39.5q-94 0 -175 34.5t-141.5 96t-94.5 145.5t-34 182zM266 449q0 -66 22.5 -124.5t62.5 -101.5t93.5 -67.5t114.5 -24.5 q66 0 119 23.5t92 65.5t59.5 100.5t20.5 128.5q0 145 -82 231t-209 86q-61 0 -114.5 -24.5t-93.5 -67.5t-62.5 -101.5t-22.5 -123.5zM392 1251q0 39 15 75t43 61.5t62.5 41t75.5 15.5q82 0 139.5 -55.5t57.5 -137.5q0 -41 -15.5 -75.5t-43 -60t-63.5 -41t-75 -15.5 q-82 0 -139 55t-57 137zM494 1251q0 -39 27.5 -67.5t66.5 -28.5q41 0 67.5 27.5t26.5 68.5q0 39 -27.5 68t-66.5 29q-41 0 -67.5 -28t-26.5 -69z" />
<glyph unicode="&#xe6;" horiz-adv-x="1652" d="M78 266q0 117 88 190.5t276 73.5h277q0 45 -15.5 89.5t-48 79t-81 56t-113.5 21.5q-84 0 -149.5 -37t-106.5 -90l-113 99q63 70 159.5 118.5t213.5 48.5q131 0 215 -48t125 -103q57 72 143 111.5t187 39.5q94 0 171.5 -31.5t134 -91t88.5 -142.5t32 -183q0 -23 -1 -39 t-1 -31h-685q2 -57 25 -106t60.5 -85t88 -56.5t109.5 -20.5q86 0 155.5 38t117.5 99l116 -92q-80 -98 -178 -145t-227 -47q-117 0 -209 46t-152 128q-47 -70 -134 -122t-204 -52q-94 0 -162.5 24.5t-113.5 64.5t-66.5 91t-21.5 104zM256 264q0 -59 51 -97t144 -38 q57 0 105 20.5t84 56.5t56.5 84t20.5 103h-277q-100 0 -142 -37t-42 -92zM877 535h505q0 49 -17 93t-50 76.5t-80 52t-107 19.5q-55 0 -99 -20.5t-76.5 -54t-52 -77.5t-23.5 -89z" />
<glyph unicode="&#xe7;" horiz-adv-x="909" d="M92 440q0 98 37 184.5t101.5 151t153.5 101t194 36.5q63 0 123.5 -13t113.5 -36v-172q-53 29 -112.5 46.5t-124.5 17.5q-68 0 -123.5 -24.5t-95.5 -65.5t-61.5 -97.5t-21.5 -117.5t21.5 -116.5t61.5 -97.5t95.5 -67t123.5 -25q57 0 120.5 14.5t118.5 47.5v-174 q-53 -25 -119.5 -38t-132.5 -13q-117 0 -206 40.5t-148 105.5t-89 146.5t-30 165.5zM279 -332l199 264l129 -106l-218 -246z" />
<glyph unicode="&#xe8;" horiz-adv-x="1048" d="M92 446q0 109 36 196t95.5 147.5t139 93t167.5 32.5q94 0 172 -31.5t134.5 -91t88 -142.5t31.5 -183q0 -27 -1 -41t-1 -29h-684q2 -57 24.5 -106t60.5 -85t88.5 -56.5t109.5 -20.5q86 0 155.5 38t116.5 99l117 -92q-80 -98 -178 -145t-227 -47q-98 0 -180.5 32.5 t-140.5 93t-91 146.5t-33 192zM250 1325l135 109l258 -275l-94 -76zM272 535h506q0 49 -17.5 93t-50 76.5t-79.5 52t-107 19.5q-55 0 -99 -20.5t-77 -54t-52.5 -77.5t-23.5 -89z" />
<glyph unicode="&#xe9;" horiz-adv-x="1048" d="M92 446q0 109 36 196t95.5 147.5t139 93t167.5 32.5q94 0 172 -31.5t134.5 -91t88 -142.5t31.5 -183q0 -27 -1 -41t-1 -29h-684q2 -57 24.5 -106t60.5 -85t88.5 -56.5t109.5 -20.5q86 0 155.5 38t116.5 99l117 -92q-80 -98 -178 -145t-227 -47q-98 0 -180.5 32.5 t-140.5 93t-91 146.5t-33 192zM272 535h506q0 49 -17.5 93t-50 76.5t-79.5 52t-107 19.5q-55 0 -99 -20.5t-77 -54t-52.5 -77.5t-23.5 -89zM408 1163l258 271l133 -105l-297 -244z" />
<glyph unicode="&#xea;" horiz-adv-x="1048" d="M92 446q0 109 36 196t95.5 147.5t139 93t167.5 32.5q94 0 172 -31.5t134.5 -91t88 -142.5t31.5 -183q0 -27 -1 -41t-1 -29h-684q2 -57 24.5 -106t60.5 -85t88.5 -56.5t109.5 -20.5q86 0 155.5 38t116.5 99l117 -92q-80 -98 -178 -145t-227 -47q-98 0 -180.5 32.5 t-140.5 93t-91 146.5t-33 192zM246 1171l286 273l275 -266l-92 -91l-185 175l-194 -177zM272 535h506q0 49 -17.5 93t-50 76.5t-79.5 52t-107 19.5q-55 0 -99 -20.5t-77 -54t-52.5 -77.5t-23.5 -89z" />
<glyph unicode="&#xeb;" horiz-adv-x="1048" d="M92 446q0 109 36 196t95.5 147.5t139 93t167.5 32.5q94 0 172 -31.5t134.5 -91t88 -142.5t31.5 -183q0 -27 -1 -41t-1 -29h-684q2 -57 24.5 -106t60.5 -85t88.5 -56.5t109.5 -20.5q86 0 155.5 38t116.5 99l117 -92q-80 -98 -178 -145t-227 -47q-98 0 -180.5 32.5 t-140.5 93t-91 146.5t-33 192zM225 1268q0 49 35 83.5t84 34.5t84 -34.5t35 -83.5t-35 -84t-84 -35t-84 35t-35 84zM272 535h506q0 49 -17.5 93t-50 76.5t-79.5 52t-107 19.5q-55 0 -99 -20.5t-77 -54t-52.5 -77.5t-23.5 -89zM586 1268q0 49 34.5 83.5t83.5 34.5t84 -34.5 t35 -83.5t-35 -84t-84 -35t-83.5 35t-34.5 84z" />
<glyph unicode="&#xec;" horiz-adv-x="477" d="M-4 1325l135 109l258 -275l-94 -76zM154 0v897h170v-897h-170z" />
<glyph unicode="&#xed;" horiz-adv-x="477" d="M102 1163l258 271l133 -105l-297 -244zM154 0v897h170v-897h-170z" />
<glyph unicode="&#xee;" horiz-adv-x="477" d="M-38 1171l286 273l275 -266l-92 -91l-185 175l-194 -177zM154 0v897h170v-897h-170z" />
<glyph unicode="&#xef;" horiz-adv-x="477" d="M-57 1268q0 49 35 83.5t84 34.5t84 -34.5t35 -83.5t-35 -84t-84 -35t-84 35t-35 84zM154 0v897h170v-897h-170zM304 1268q0 49 34.5 83.5t83.5 34.5t84 -34.5t35 -83.5t-35 -84t-84 -35t-83.5 35t-34.5 84z" />
<glyph unicode="&#xf0;" horiz-adv-x="1163" d="M92 440q0 100 35 187.5t95.5 151t141 100t173.5 36.5q92 0 171.5 -37.5t131.5 -105.5q-10 51 -26.5 107.5t-42.5 110.5t-60.5 103.5t-81.5 88.5l-242 -146l-78 131l191 117q-59 37 -132 63.5t-159 43.5l24 155q244 -45 422 -170l219 133l78 -131l-176 -106 q127 -129 194.5 -311.5t67.5 -403.5q0 -131 -35.5 -237.5t-101 -181.5t-158 -115.5t-206.5 -40.5q-94 0 -175 34.5t-141.5 96t-94.5 145.5t-34 182zM266 449q0 -66 22.5 -124.5t62.5 -101.5t93.5 -67.5t114.5 -24.5q66 0 119 23.5t91 65.5t58.5 100.5t20.5 128.5 q0 145 -81 231t-208 86q-61 0 -114.5 -24.5t-93.5 -67.5t-62.5 -101.5t-22.5 -123.5z" />
<glyph unicode="&#xf1;" horiz-adv-x="1079" d="M153 1139q0 106 56.5 175.5t167.5 69.5q45 0 85 -18t76.5 -42t70.5 -42t71 -18q41 0 65.5 28.5t24.5 81.5h131q0 -106 -56.5 -176t-166.5 -70q-49 0 -92.5 18.5t-80 42t-69.5 42t-61 18.5q-41 0 -66 -28.5t-25 -81.5h-131zM154 0v897h163v-119q41 55 112 95t169 40 q156 0 242 -84t86 -266v-563h-170v539q0 117 -47 172t-144 55q-49 0 -93 -18.5t-77 -52t-52 -80t-19 -101.5v-514h-170z" />
<glyph unicode="&#xf2;" horiz-adv-x="1122" d="M92 442q0 96 38 182.5t102.5 151t150.5 101t182 36.5q98 0 183.5 -34.5t147.5 -97t98 -147.5t36 -183t-37 -184.5t-101.5 -150t-150.5 -100t-184 -36.5t-183 34.5t-147.5 97t-98.5 147.5t-36 183zM266 453q0 -66 23.5 -123.5t63.5 -99.5t94.5 -66.5t117.5 -24.5 q61 0 114.5 23.5t92.5 65.5t61.5 97.5t22.5 118.5q0 66 -23.5 123.5t-63.5 99.5t-94 66.5t-118 24.5q-61 0 -114.5 -23.5t-92.5 -65.5t-61.5 -97.5t-22.5 -118.5zM317 1325l135 109l258 -275l-94 -76z" />
<glyph unicode="&#xf3;" horiz-adv-x="1122" d="M92 442q0 96 38 182.5t102.5 151t150.5 101t182 36.5q98 0 183.5 -34.5t147.5 -97t98 -147.5t36 -183t-37 -184.5t-101.5 -150t-150.5 -100t-184 -36.5t-183 34.5t-147.5 97t-98.5 147.5t-36 183zM266 453q0 -66 23.5 -123.5t63.5 -99.5t94.5 -66.5t117.5 -24.5 q61 0 114.5 23.5t92.5 65.5t61.5 97.5t22.5 118.5q0 66 -23.5 123.5t-63.5 99.5t-94 66.5t-118 24.5q-61 0 -114.5 -23.5t-92.5 -65.5t-61.5 -97.5t-22.5 -118.5zM453 1163l258 271l133 -105l-297 -244z" />
<glyph unicode="&#xf4;" horiz-adv-x="1122" d="M92 442q0 96 38 182.5t102.5 151t150.5 101t182 36.5q98 0 183.5 -34.5t147.5 -97t98 -147.5t36 -183t-37 -184.5t-101.5 -150t-150.5 -100t-184 -36.5t-183 34.5t-147.5 97t-98.5 147.5t-36 183zM266 453q0 -66 23.5 -123.5t63.5 -99.5t94.5 -66.5t117.5 -24.5 q61 0 114.5 23.5t92.5 65.5t61.5 97.5t22.5 118.5q0 66 -23.5 123.5t-63.5 99.5t-94 66.5t-118 24.5q-61 0 -114.5 -23.5t-92.5 -65.5t-61.5 -97.5t-22.5 -118.5zM271 1171l286 273l275 -266l-92 -91l-185 175l-194 -177z" />
<glyph unicode="&#xf5;" horiz-adv-x="1122" d="M92 442q0 96 38 182.5t102.5 151t150.5 101t182 36.5q98 0 183.5 -34.5t147.5 -97t98 -147.5t36 -183t-37 -184.5t-101.5 -150t-150.5 -100t-184 -36.5t-183 34.5t-147.5 97t-98.5 147.5t-36 183zM172 1139q0 106 56.5 175.5t167.5 69.5q45 0 85 -18t76.5 -42t70.5 -42 t71 -18q41 0 65.5 28.5t24.5 81.5h131q0 -106 -56.5 -176t-166.5 -70q-49 0 -92.5 18.5t-80 42t-69.5 42t-61 18.5q-41 0 -66 -28.5t-25 -81.5h-131zM266 453q0 -66 23.5 -123.5t63.5 -99.5t94.5 -66.5t117.5 -24.5q61 0 114.5 23.5t92.5 65.5t61.5 97.5t22.5 118.5 q0 66 -23.5 123.5t-63.5 99.5t-94 66.5t-118 24.5q-61 0 -114.5 -23.5t-92.5 -65.5t-61.5 -97.5t-22.5 -118.5z" />
<glyph unicode="&#xf6;" horiz-adv-x="1122" d="M92 442q0 96 38 182.5t102.5 151t150.5 101t182 36.5q98 0 183.5 -34.5t147.5 -97t98 -147.5t36 -183t-37 -184.5t-101.5 -150t-150.5 -100t-184 -36.5t-183 34.5t-147.5 97t-98.5 147.5t-36 183zM262 1268q0 49 35 83.5t84 34.5t84 -34.5t35 -83.5t-35 -84t-84 -35 t-84 35t-35 84zM266 453q0 -66 23.5 -123.5t63.5 -99.5t94.5 -66.5t117.5 -24.5q61 0 114.5 23.5t92.5 65.5t61.5 97.5t22.5 118.5q0 66 -23.5 123.5t-63.5 99.5t-94 66.5t-118 24.5q-61 0 -114.5 -23.5t-92.5 -65.5t-61.5 -97.5t-22.5 -118.5zM623 1268q0 49 34.5 83.5 t83.5 34.5t84 -34.5t35 -83.5t-35 -84t-84 -35t-83.5 35t-34.5 84z" />
<glyph unicode="&#xf7;" horiz-adv-x="1392" d="M113 498v164h1167v-164h-1167zM561 125q0 55 40 95t95 40t95 -40t40 -95t-40 -95t-95 -40t-95 40t-40 95zM561 1032q0 55 40 95t95 40t95 -40t40 -95t-40 -95t-95 -40t-95 40t-40 95z" />
<glyph unicode="&#xf8;" horiz-adv-x="1122" d="M76 8l123 133q-51 59 -79 136t-28 165q0 96 38 182.5t102.5 151t150.5 101t182 36.5q152 0 266 -79l121 133l92 -90l-116 -129q47 -59 74.5 -134t27.5 -163q0 -98 -37 -184.5t-101.5 -150t-150.5 -100t-184 -36.5q-150 0 -262 75l-127 -137zM258 453q0 -102 55 -187 l410 451q-74 51 -166 51q-63 0 -117.5 -24.5t-94.5 -67.5t-63.5 -100.5t-23.5 -122.5zM406 176q72 -47 159 -47q63 0 117.5 24.5t94.5 67.5t63.5 100.5t23.5 122.5q0 100 -51 181z" />
<glyph unicode="&#xf9;" horiz-adv-x="1085" d="M154 399v498h170v-477q0 -59 8 -111.5t31.5 -91.5t67.5 -62.5t116 -23.5q70 0 112.5 25.5t65.5 66.5t30 91.5t7 99.5v483h170v-471q0 -86 -16.5 -166t-60.5 -142.5t-121 -99t-195 -36.5q-117 0 -192 36.5t-118 95t-59 133.5t-16 152zM281 1325l135 109l258 -275l-94 -76z " />
<glyph unicode="&#xfa;" horiz-adv-x="1085" d="M154 399v498h170v-477q0 -59 8 -111.5t31.5 -91.5t67.5 -62.5t116 -23.5q70 0 112.5 25.5t65.5 66.5t30 91.5t7 99.5v483h170v-471q0 -86 -16.5 -166t-60.5 -142.5t-121 -99t-195 -36.5q-117 0 -192 36.5t-118 95t-59 133.5t-16 152zM387 1163l258 271l133 -105 l-297 -244z" />
<glyph unicode="&#xfb;" horiz-adv-x="1085" d="M154 399v498h170v-477q0 -59 8 -111.5t31.5 -91.5t67.5 -62.5t116 -23.5q70 0 112.5 25.5t65.5 66.5t30 91.5t7 99.5v483h170v-471q0 -86 -16.5 -166t-60.5 -142.5t-121 -99t-195 -36.5q-117 0 -192 36.5t-118 95t-59 133.5t-16 152zM277 1171l286 273l275 -266l-92 -91 l-185 175l-194 -177z" />
<glyph unicode="&#xfc;" horiz-adv-x="1085" d="M154 399v498h170v-477q0 -59 8 -111.5t31.5 -91.5t67.5 -62.5t116 -23.5q70 0 112.5 25.5t65.5 66.5t30 91.5t7 99.5v483h170v-471q0 -86 -16.5 -166t-60.5 -142.5t-121 -99t-195 -36.5q-117 0 -192 36.5t-118 95t-59 133.5t-16 152zM244 1268q0 49 35 83.5t84 34.5 t84 -34.5t35 -83.5t-35 -84t-84 -35t-84 35t-35 84zM605 1268q0 49 34.5 83.5t83.5 34.5t84 -34.5t35 -83.5t-35 -84t-84 -35t-83.5 35t-34.5 84z" />
<glyph unicode="&#xfd;" horiz-adv-x="964" d="M12 897h201l158 -322q31 -63 67.5 -138t67.5 -142q29 63 55.5 124.5t54.5 125.5l160 352h178l-620 -1309h-172l252 523zM381 1163l258 271l133 -105l-297 -244z" />
<glyph unicode="&#xfe;" horiz-adv-x="1159" d="M154 -412v1946h170v-766q45 68 124.5 107.5t178.5 39.5q94 0 175 -34.5t140 -96t94 -145.5t35 -182q0 -100 -35 -187.5t-95 -151t-141 -100t-173 -36.5t-171 36.5t-132 106.5v-537h-170zM313 449q0 -145 82 -231.5t209 -86.5q61 0 114.5 24.5t93.5 67.5t62.5 101.5 t22.5 124.5t-22.5 124t-62.5 101t-93 67.5t-115 24.5q-66 0 -119 -23.5t-92 -65.5t-59.5 -100.5t-20.5 -127.5z" />
<glyph unicode="&#xff;" horiz-adv-x="964" d="M12 897h201l158 -322q31 -63 67.5 -138t67.5 -142q29 63 55.5 124.5t54.5 125.5l160 352h178l-620 -1309h-172l252 523zM184 1268q0 49 35 83.5t84 34.5t84 -34.5t35 -83.5t-35 -84t-84 -35t-84 35t-35 84zM545 1268q0 49 34.5 83.5t83.5 34.5t84 -34.5t35 -83.5t-35 -84 t-84 -35t-83.5 35t-34.5 84z" />
<glyph unicode="&#x152;" horiz-adv-x="2330" d="M102 723q0 152 60.5 289t165 240.5t243 164t293.5 60.5q164 0 306.5 -62.5t246.5 -185.5v223h758v-172h-573v-444h550v-164h-550v-502h579v-170h-764v233q-106 -125 -250.5 -191.5t-308.5 -66.5q-156 0 -293 58.5t-240.5 159t-163 236.5t-59.5 294zM295 729 q0 -117 45 -222.5t122 -185t180 -125.5t220 -46q123 0 225.5 44t178 120.5t117.5 182t42 226.5q0 123 -41 229.5t-115.5 185.5t-179 124t-229.5 45q-121 0 -224.5 -47.5t-179 -126t-118.5 -183t-43 -221.5z" />
<glyph unicode="&#x153;" horiz-adv-x="1796" d="M92 442q0 96 38 182.5t102.5 151t150.5 101t182 36.5q117 0 212 -49t159 -147q59 100 152.5 149t201.5 49q94 0 172 -31.5t134.5 -91t88 -142.5t31.5 -183q0 -27 -1 -41t-1 -29h-684q2 -57 24.5 -106t60.5 -85t88 -56.5t110 -20.5q86 0 155.5 38t116.5 99l117 -92 q-80 -98 -178.5 -145t-227.5 -47q-119 0 -212 49t-152 149q-63 -98 -160.5 -149t-214.5 -51q-98 0 -183 34.5t-147.5 97t-98.5 147.5t-36 183zM266 453q0 -66 23.5 -123.5t63.5 -99.5t94.5 -66.5t117.5 -24.5q61 0 114.5 23.5t92.5 65.5t61.5 97.5t22.5 118.5 q0 66 -23.5 123.5t-63.5 99.5t-94 66.5t-118 24.5q-61 0 -114.5 -23.5t-92.5 -65.5t-61.5 -97.5t-22.5 -118.5zM1032 535h506q0 49 -17.5 93t-50 76.5t-80 52t-106.5 19.5q-55 0 -99 -20.5t-77 -54t-52.5 -77.5t-23.5 -89z" />
<glyph unicode="&#x178;" horiz-adv-x="1175" d="M31 1452h209l354 -629l352 629h199l-467 -801v-651h-184v651zM285 1698q0 49 35 84t84 35t84 -35t35 -84t-35 -84t-84 -35t-84 35t-35 84zM645 1698q0 49 35 84t84 35t84 -35t35 -84t-35 -84t-84 -35t-84 35t-35 84z" />
<glyph unicode="&#x2c6;" horiz-adv-x="696" d="M68 1171l286 273l275 -266l-92 -91l-185 175l-194 -177z" />
<glyph unicode="&#x2dc;" horiz-adv-x="696" d="M-27 1139q0 106 56.5 175.5t167.5 69.5q45 0 85 -18t76.5 -42t70.5 -42t71 -18q41 0 65.5 28.5t24.5 81.5h131q0 -106 -56.5 -176t-166.5 -70q-49 0 -92.5 18.5t-80 42t-69.5 42t-61 18.5q-41 0 -66 -28.5t-25 -81.5h-131z" />
<glyph unicode="&#x2000;" horiz-adv-x="933" />
<glyph unicode="&#x2001;" horiz-adv-x="1866" />
<glyph unicode="&#x2002;" horiz-adv-x="933" />
<glyph unicode="&#x2003;" horiz-adv-x="1866" />
<glyph unicode="&#x2004;" horiz-adv-x="622" />
<glyph unicode="&#x2005;" horiz-adv-x="466" />
<glyph unicode="&#x2006;" horiz-adv-x="311" />
<glyph unicode="&#x2007;" horiz-adv-x="311" />
<glyph unicode="&#x2008;" horiz-adv-x="233" />
<glyph unicode="&#x2009;" horiz-adv-x="373" />
<glyph unicode="&#x200a;" horiz-adv-x="103" />
<glyph unicode="&#x2010;" horiz-adv-x="704" d="M94 494v145h518v-145h-518z" />
<glyph unicode="&#x2011;" horiz-adv-x="704" d="M94 494v145h518v-145h-518z" />
<glyph unicode="&#x2012;" horiz-adv-x="704" d="M94 494v145h518v-145h-518z" />
<glyph unicode="&#x2013;" horiz-adv-x="1044" d="M10 494v147h1024v-147h-1024z" />
<glyph unicode="&#x2014;" horiz-adv-x="2068" d="M10 494v147h2048v-147h-2048z" />
<glyph unicode="&#x2018;" horiz-adv-x="512" d="M98 1112q0 113 72 222.5t201 205.5l73 -86q-63 -55 -103 -112.5t-40 -110.5q0 -31 7 -53.5t15.5 -43t15.5 -42t7 -45.5q0 -45 -31.5 -79t-85.5 -34q-51 0 -91 42t-40 136z" />
<glyph unicode="&#x2019;" horiz-adv-x="512" d="M68 963q63 55 103 112.5t40 110.5q0 31 -7 53.5t-15.5 43t-15.5 42t-7 45.5q0 45 31.5 79t85.5 34q51 0 91 -42t40 -136q0 -113 -72 -222.5t-201 -205.5z" />
<glyph unicode="&#x201a;" horiz-adv-x="512" d="M68 -270q63 55 103 112.5t40 110.5q0 31 -7 53.5t-15.5 43t-15.5 42t-7 45.5q0 45 31.5 79t85.5 34q51 0 91 -42t40 -136q0 -113 -72 -222.5t-201 -205.5z" />
<glyph unicode="&#x201c;" horiz-adv-x="788" d="M104 1126q0 104 56.5 205t148.5 193l82 -72q-51 -51 -79.5 -107.5t-28.5 -109.5q0 -27 7 -48.5t14 -40t14.5 -36.5t7.5 -41q0 -41 -29 -72.5t-74 -31.5t-82 37.5t-37 123.5zM426 1126q0 104 56.5 205t148.5 193l82 -72q-51 -51 -80 -107.5t-29 -109.5q0 -27 7 -48.5 t14.5 -40t14.5 -36.5t7 -41q0 -41 -28.5 -72.5t-73.5 -31.5t-82 37.5t-37 123.5z" />
<glyph unicode="&#x201d;" horiz-adv-x="788" d="M76 989q51 51 79.5 107.5t28.5 109.5q0 27 -7 48.5t-14 40t-14.5 37t-7.5 40.5q0 41 29 73t74 32t81.5 -38t36.5 -124q0 -104 -56 -204.5t-148 -192.5zM397 989q51 51 80 107.5t29 109.5q0 27 -7 48.5t-14.5 40t-14.5 37t-7 40.5q0 41 28.5 73t73.5 32t82 -38t37 -124 q0 -104 -56.5 -204.5t-148.5 -192.5z" />
<glyph unicode="&#x201e;" horiz-adv-x="788" d="M76 -244q51 51 79.5 107.5t28.5 109.5q0 27 -7 48.5t-14 40t-14.5 37t-7.5 40.5q0 41 29 73t74 32t81.5 -38t36.5 -124q0 -104 -56 -204.5t-148 -192.5zM397 -244q51 51 80 107.5t29 109.5q0 27 -7 48.5t-14.5 40t-14.5 37t-7 40.5q0 41 28.5 73t73.5 32t82 -38t37 -124 q0 -104 -56.5 -204.5t-148.5 -192.5z" />
<glyph unicode="&#x2022;" horiz-adv-x="704" d="M84 707q0 55 21.5 104t58.5 86t86 58.5t104 21.5t104.5 -21.5t86.5 -58.5t58.5 -86t21.5 -104t-21.5 -104.5t-58.5 -86.5t-86.5 -58.5t-104.5 -21.5t-104 21.5t-86 58.5t-58.5 86t-21.5 105z" />
<glyph unicode="&#x2026;" horiz-adv-x="1605" d="M123 111q0 55 40 95t95 40t95 -40t40 -95t-40 -95.5t-95 -40.5t-95 40t-40 96zM635 111q0 55 40 95t95 40t95 -40t40 -95t-40 -95.5t-95 -40.5t-95 40t-40 96zM1147 111q0 55 40 95t95 40t95 -40t40 -95t-40 -95.5t-95 -40.5t-95 40t-40 96z" />
<glyph unicode="&#x202f;" horiz-adv-x="373" />
<glyph unicode="&#x2039;" horiz-adv-x="555" d="M49 467l309 436l111 -78l-266 -358l266 -356l-111 -78z" />
<glyph unicode="&#x203a;" horiz-adv-x="555" d="M86 111l266 358l-266 356l111 78l309 -434l-309 -436z" />
<glyph unicode="&#x205f;" horiz-adv-x="466" />
<glyph unicode="&#x20ac;" d="M109 487v146h155q-2 20 -2 39.5v42.5v49t2 49h-155v145h170q20 115 60 209.5t103.5 162t148.5 105.5t193 38q66 0 128.5 -15.5t131.5 -46.5v-180q-66 37 -131 60.5t-139 23.5q-129 0 -203.5 -98.5t-103.5 -258.5h381v-145h-393q-2 -20 -2 -38.5v-39.5v-52.5t2 -49.5h393 v-146h-381q25 -164 96.5 -258t210.5 -94q72 0 140.5 21.5t142.5 62.5v-178q-74 -35 -138.5 -50.5t-154.5 -15.5q-111 0 -195 37t-144 104.5t-97 162t-54 208.5h-165z" />
<glyph unicode="&#x2122;" horiz-adv-x="1630" d="M63 1331v121h539v-121h-203v-598h-133v598h-203zM647 733l109 719h139l113 -326q18 -55 35.5 -112.5t37.5 -120.5q16 57 36 116.5t36 106.5l121 336h127l102 -719h-133l-31 230q-10 66 -17 144.5t-11 143.5q-37 -137 -82 -258l-99 -262h-114l-94 266q-20 55 -41 121 t-41 133q-4 -68 -13.5 -142.5t-19.5 -145.5l-31 -230h-129z" />
<glyph unicode="&#x25fc;" horiz-adv-x="901" d="M0 0v901h901v-901h-901z" />
</font>
</defs>
</svg>
